<svg width="60" height="60" viewBox="0 0 60 60" fill="none" xmlns="http://www.w3.org/2000/svg">
<g clip-path="url(#clip0_817_3536)">
<path d="M7.39136 13.4783H16.087V16.087H7.39136V13.4783Z" fill="#56A548"/>
<path d="M10.4348 10.4348H16.087V13.4783H10.4348V10.4348Z" fill="#56A548"/>
<path d="M13.4783 7.39136H16.087V10.4348H13.4783V7.39136Z" fill="#56A548"/>
<path d="M46.5218 7.39136V16.087H43.9131V7.39136H46.5218Z" fill="#56A548"/>
<path d="M49.5652 10.4348V16.087H46.5217V10.4348H49.5652Z" fill="#56A548"/>
<path d="M52.6087 13.4783V16.087H49.5652V13.4783H52.6087Z" fill="#56A548"/>
<path d="M52.6087 46.5218H43.9131V43.9131H52.6087V46.5218Z" fill="#56A548"/>
<path d="M49.5653 49.5652H43.9131V46.5217H49.5653V49.5652Z" fill="#56A548"/>
<path d="M46.5218 52.6087H43.9131V49.5652H46.5218V52.6087Z" fill="#56A548"/>
<path d="M13.4783 52.6087V43.9131H16.087V52.6087H13.4783Z" fill="#56A548"/>
<path d="M10.4348 49.5653V43.9131H13.4783V49.5653H10.4348Z" fill="#56A548"/>
<path d="M7.39136 46.5218V43.9131H10.4348V46.5218H7.39136Z" fill="#56A548"/>
<path d="M26.0869 26.0869H33.913V33.913H26.0869V26.0869Z" fill="#FEF9BA"/>
<path d="M26.0869 4.34778H33.913V6.52169H26.0869V4.34778Z" fill="#E8210B"/>
<path d="M29.1305 0.869507H30.8696V4.34777H29.1305V0.869507Z" fill="#E8210B"/>
<path d="M26.0869 6.52173H28.6956V9.56521H26.0869V6.52173Z" fill="#E8210B"/>
<path d="M31.3043 6.52173H33.913V9.56521H31.3043V6.52173Z" fill="#E8210B"/>
<path d="M23.0435 7.39136H26.0869V9.56527H23.0435V7.39136Z" fill="#E8210B"/>
<path d="M33.9131 7.39136H36.9566V9.56527H33.9131V7.39136Z" fill="#E8210B"/>
<path d="M23.0435 9.56519H25.2174V13.0434H23.0435V9.56519Z" fill="#E8210B"/>
<path d="M34.7826 9.56519H36.9565V13.0434H34.7826V9.56519Z" fill="#E8210B"/>
<path d="M36.9565 10.4348H40V13.0435H36.9565V10.4348Z" fill="#E8210B"/>
<path d="M20 10.4348H23.0435V13.0435H20V10.4348Z" fill="#E8210B"/>
<path d="M20 13.0435H22.1739V15.6522H20V13.0435Z" fill="#E8210B"/>
<path d="M37.826 13.0435H40V15.6522H37.826V13.0435Z" fill="#E8210B"/>
<path d="M33.913 55.6522H26.0869V53.4783H33.913V55.6522Z" fill="#E8210B"/>
<path d="M30.8696 59.1305H29.1305V55.6522H30.8696V59.1305Z" fill="#E8210B"/>
<path d="M33.913 53.4783H31.3043V50.4348H33.913V53.4783Z" fill="#E8210B"/>
<path d="M28.6956 53.4783H26.0869V50.4348H28.6956V53.4783Z" fill="#E8210B"/>
<path d="M36.9566 52.6087H33.9131V50.4348H36.9566V52.6087Z" fill="#E8210B"/>
<path d="M26.0869 52.6087H23.0435V50.4348H26.0869V52.6087Z" fill="#E8210B"/>
<path d="M36.9565 50.4348H34.7826V46.9565H36.9565V50.4348Z" fill="#E8210B"/>
<path d="M25.2174 50.4348H23.0435V46.9565H25.2174V50.4348Z" fill="#E8210B"/>
<path d="M23.0435 49.5652H20V46.9565H23.0435V49.5652Z" fill="#E8210B"/>
<path d="M40 49.5652H36.9565V46.9565H40V49.5652Z" fill="#E8210B"/>
<path d="M40 46.9565H37.826V44.3478H40V46.9565Z" fill="#E8210B"/>
<path d="M22.1739 46.9565H20V44.3478H22.1739V46.9565Z" fill="#E8210B"/>
<path d="M4.34778 33.913V26.0869H6.52169V33.913H4.34778Z" fill="#E8210B"/>
<path d="M0.869507 30.8696V29.1305H4.34777V30.8696H0.869507Z" fill="#E8210B"/>
<path d="M6.52173 33.913V31.3043H9.56521V33.913H6.52173Z" fill="#E8210B"/>
<path d="M6.52173 28.6956V26.0869H9.56521V28.6956H6.52173Z" fill="#E8210B"/>
<path d="M7.39136 36.9566V33.9131H9.56527V36.9566H7.39136Z" fill="#E8210B"/>
<path d="M7.39136 26.0869V23.0435H9.56527V26.0869H7.39136Z" fill="#E8210B"/>
<path d="M9.56519 36.9565V34.7826H13.0434V36.9565H9.56519Z" fill="#E8210B"/>
<path d="M9.56519 25.2174V23.0435H13.0434V25.2174H9.56519Z" fill="#E8210B"/>
<path d="M10.4348 23.0435V20H13.0435V23.0435H10.4348Z" fill="#E8210B"/>
<path d="M10.4348 40V36.9565H13.0435V40H10.4348Z" fill="#E8210B"/>
<path d="M13.0435 40V37.826H15.6522V40H13.0435Z" fill="#E8210B"/>
<path d="M13.0435 22.1739V20H15.6522V22.1739H13.0435Z" fill="#E8210B"/>
<path d="M55.6522 26.0869V33.913H53.4783V26.0869H55.6522Z" fill="#E8210B"/>
<path d="M59.1305 29.1305V30.8696H55.6522V29.1305H59.1305Z" fill="#E8210B"/>
<path d="M53.4783 26.0869V28.6956H50.4348V26.0869H53.4783Z" fill="#E8210B"/>
<path d="M53.4783 31.3043V33.913H50.4348V31.3043H53.4783Z" fill="#E8210B"/>
<path d="M52.6087 23.0435V26.0869H50.4348V23.0435H52.6087Z" fill="#E8210B"/>
<path d="M52.6087 33.9131V36.9566H50.4348V33.9131H52.6087Z" fill="#E8210B"/>
<path d="M50.4348 23.0435V25.2174H46.9565V23.0435H50.4348Z" fill="#E8210B"/>
<path d="M50.4348 34.7826V36.9565H46.9565V34.7826H50.4348Z" fill="#E8210B"/>
<path d="M49.5652 36.9565V40H46.9565V36.9565H49.5652Z" fill="#E8210B"/>
<path d="M49.5652 20V23.0435H46.9565V20H49.5652Z" fill="#E8210B"/>
<path d="M46.9565 20V22.1739H44.3478V20H46.9565Z" fill="#E8210B"/>
<path d="M46.9565 37.826V40H44.3478V37.826H46.9565Z" fill="#E8210B"/>
<path d="M28.6957 6.52173H31.3044V9.56521H28.6957V6.52173Z" fill="#BF1A14"/>
<path d="M25.2174 9.56519H34.7826V12.1739H25.2174V9.56519Z" fill="#BF1A14"/>
<path d="M22.174 13.0435H26.087V15.6522H22.174V13.0435Z" fill="#BF1A14"/>
<path d="M33.9131 13.0435H37.8261V15.6522H33.9131V13.0435Z" fill="#BF1A14"/>
<path d="M23.0435 15.6522H26.0869V18.6957H23.0435V15.6522Z" fill="#BF1A14"/>
<path d="M33.9131 15.6522H36.9566V18.6957H33.9131V15.6522Z" fill="#BF1A14"/>
<path d="M26.0869 13.0435H27.826V21.7391H26.0869V13.0435Z" fill="#BF1A14"/>
<path d="M32.174 13.0435H33.9131V21.7391H32.174V13.0435Z" fill="#BF1A14"/>
<path d="M25.2174 12.174H27.8261V13.0435H25.2174V12.174Z" fill="#BF1A14"/>
<path d="M32.174 12.174H34.7826V13.0435H32.174V12.174Z" fill="#BF1A14"/>
<path d="M31.3044 53.4783H28.6957V50.4348H31.3044V53.4783Z" fill="#BF1A14"/>
<path d="M34.7826 50.4347H25.2174V47.826H34.7826V50.4347Z" fill="#BF1A14"/>
<path d="M37.8261 46.9565H33.9131V44.3478H37.8261V46.9565Z" fill="#BF1A14"/>
<path d="M26.087 46.9565H22.174V44.3478H26.087V46.9565Z" fill="#BF1A14"/>
<path d="M36.9566 44.3478H33.9131V41.3043H36.9566V44.3478Z" fill="#BF1A14"/>
<path d="M26.0869 44.3478H23.0435V41.3043H26.0869V44.3478Z" fill="#BF1A14"/>
<path d="M33.9131 46.9565H32.174V38.2609H33.9131V46.9565Z" fill="#BF1A14"/>
<path d="M27.826 46.9565H26.0869V38.2609H27.826V46.9565Z" fill="#BF1A14"/>
<path d="M34.7826 47.8261H32.174V46.9565H34.7826V47.8261Z" fill="#BF1A14"/>
<path d="M27.8261 47.8261H25.2174V46.9565H27.8261V47.8261Z" fill="#BF1A14"/>
<path d="M6.52173 31.3044V28.6957H9.56521V31.3044H6.52173Z" fill="#BF1A14"/>
<path d="M9.56519 34.7826V25.2174H12.1739V34.7826H9.56519Z" fill="#BF1A14"/>
<path d="M13.0435 37.8261V33.9131H15.6522V37.8261H13.0435Z" fill="#BF1A14"/>
<path d="M13.0435 26.087V22.174H15.6522V26.087H13.0435Z" fill="#BF1A14"/>
<path d="M15.6522 36.9566V33.9131H18.6957V36.9566H15.6522Z" fill="#BF1A14"/>
<path d="M15.6522 26.0869V23.0435H18.6957V26.0869H15.6522Z" fill="#BF1A14"/>
<path d="M13.0435 33.9131V32.174H21.7391V33.9131H13.0435Z" fill="#BF1A14"/>
<path d="M13.0435 27.826V26.0869H21.7391V27.826H13.0435Z" fill="#BF1A14"/>
<path d="M12.174 34.7826V32.174H13.0435V34.7826H12.174Z" fill="#BF1A14"/>
<path d="M12.174 27.8261V25.2174H13.0435V27.8261H12.174Z" fill="#BF1A14"/>
<path d="M53.4783 28.6957V31.3044H50.4348V28.6957H53.4783Z" fill="#BF1A14"/>
<path d="M50.4347 25.2174V34.7826H47.826V25.2174H50.4347Z" fill="#BF1A14"/>
<path d="M46.9565 22.174V26.087H44.3478V22.174H46.9565Z" fill="#BF1A14"/>
<path d="M46.9565 33.9131V37.8261H44.3478V33.9131H46.9565Z" fill="#BF1A14"/>
<path d="M44.3478 23.0435V26.0869H41.3043V23.0435H44.3478Z" fill="#BF1A14"/>
<path d="M44.3478 33.9131V36.9566H41.3043V33.9131H44.3478Z" fill="#BF1A14"/>
<path d="M46.9565 26.0869V27.826H38.2609V26.0869H46.9565Z" fill="#BF1A14"/>
<path d="M46.9565 32.174V33.9131H38.2609V32.174H46.9565Z" fill="#BF1A14"/>
<path d="M47.8261 25.2174V27.8261H46.9565V25.2174H47.8261Z" fill="#BF1A14"/>
<path d="M47.8261 32.174V34.7826H46.9565V32.174H47.8261Z" fill="#BF1A14"/>
<path d="M6.95654 3.04346H11.3044V3.91302H6.95654V3.04346Z" fill="black"/>
<path d="M3.04346 6.95654H6.9565V7.82611H3.04346V6.95654Z" fill="black"/>
<path d="M3.91309 10.4348H7.39135V11.3044H3.91309V10.4348Z" fill="black"/>
<path d="M6.95654 3.91309H7.82611V7.82613H6.95654V3.91309Z" fill="black"/>
<path d="M3.04346 7.82605H3.91302V11.3043H3.04346V7.82605Z" fill="black"/>
<path d="M10.4348 3.91309H11.3044V7.39135H10.4348V3.91309Z" fill="black"/>
<path d="M7.39136 7.39136H8.26092V8.26092H7.39136V7.39136Z" fill="black"/>
<path d="M7.82605 7.82605H8.69562V8.69562H7.82605V7.82605Z" fill="black"/>
<path d="M8.26086 8.26086H9.13043V9.13043H8.26086V8.26086Z" fill="black"/>
<path d="M8.69568 8.69568H9.56524V9.56524H8.69568V8.69568Z" fill="black"/>
<path d="M9.13049 9.13049H10.0001V10.0001H9.13049V9.13049Z" fill="black"/>
<path d="M9.56519 9.56519H10.4348V13.4782H9.56519V9.56519Z" fill="black"/>
<path d="M10.4348 9.56519H13.4783V10.4348H10.4348V9.56519Z" fill="black"/>
<path d="M12.6086 6.52173H13.4782V9.56521H12.6086V6.52173Z" fill="black"/>
<path d="M13.4783 6.52173H16.087V7.39129H13.4783V6.52173Z" fill="black"/>
<path d="M16.0869 3.04346H16.9565V7.39128H16.0869V3.04346Z" fill="black"/>
<path d="M19.5652 3.04346H20.4348V7.39128H19.5652V3.04346Z" fill="black"/>
<path d="M16.0869 7.39136H16.9565V16.9566H16.0869V7.39136Z" fill="black"/>
<path d="M3.04346 16.0869H16.0869V16.9565H3.04346V16.0869Z" fill="black"/>
<path d="M16.9565 3.04346H19.5652V3.91302H16.9565V3.04346Z" fill="black"/>
<path d="M3.04346 19.5652H7.39128V20.4348H3.04346V19.5652Z" fill="black"/>
<path d="M3.04346 16.9565H3.91302V19.5652H3.04346V16.9565Z" fill="black"/>
<path d="M7.39136 12.6086H9.56527V13.4782H7.39136V12.6086Z" fill="black"/>
<path d="M6.52173 12.6086H7.39129V16.0869H6.52173V12.6086Z" fill="black"/>
<path d="M16.5217 16.5217H17.3913V17.3913H16.5217V16.5217Z" fill="black"/>
<path d="M16.9565 16.9565H17.8261V17.8261H16.9565V16.9565Z" fill="black"/>
<path d="M17.3914 17.3914H18.2609V18.2609H17.3914V17.3914Z" fill="black"/>
<path d="M17.826 17.826H18.6956V18.6956H17.826V17.826Z" fill="black"/>
<path d="M18.2609 18.2609H19.1304V19.1304H18.2609V18.2609Z" fill="black"/>
<path d="M18.6957 18.6957H19.5652V19.5652H18.6957V18.6957Z" fill="black"/>
<path d="M19.1305 19.1305H20.0001V20.0001H19.1305V19.1305Z" fill="black"/>
<path d="M19.5652 19.5652H20.4348V20.4348H19.5652V19.5652Z" fill="black"/>
<path d="M20 20H20.8696V20.8696H20V20Z" fill="black"/>
<path d="M20.4348 20.4348H21.3044V21.3044H20.4348V20.4348Z" fill="black"/>
<path d="M20.8695 20.8695H21.7391V21.7391H20.8695V20.8695Z" fill="black"/>
<path d="M21.3043 21.3043H22.1739V22.1739H21.3043V21.3043Z" fill="black"/>
<path d="M21.7391 21.7391H22.6087V22.6087H21.7391V21.7391Z" fill="black"/>
<path d="M22.174 22.174H23.0435V23.0435H22.174V22.174Z" fill="black"/>
<path d="M22.6086 22.6086H23.4782V23.4782H22.6086V22.6086Z" fill="black"/>
<path d="M23.0435 23.0435H23.913V23.913H23.0435V23.0435Z" fill="black"/>
<path d="M23.4783 23.4783H24.3478V24.3478H23.4783V23.4783Z" fill="black"/>
<path d="M23.9131 23.9131H24.7827V24.7827H23.9131V23.9131Z" fill="black"/>
<path d="M24.3478 24.3478H25.2173V25.2173H24.3478V24.3478Z" fill="black"/>
<path d="M24.7826 24.7826H25.6522V25.6522H24.7826V24.7826Z" fill="black"/>
<path d="M56.9565 6.95654V11.3044H56.0869V6.95654H56.9565Z" fill="black"/>
<path d="M53.0435 3.04346V6.9565H52.174V3.04346H53.0435Z" fill="black"/>
<path d="M49.5652 3.91309V7.39135H48.6957V3.91309H49.5652Z" fill="black"/>
<path d="M56.087 6.95654V7.82611H52.174V6.95654H56.087Z" fill="black"/>
<path d="M52.1739 3.04346V3.91302H48.6957V3.04346H52.1739Z" fill="black"/>
<path d="M56.0869 10.4348V11.3044H52.6086V10.4348H56.0869Z" fill="black"/>
<path d="M52.6087 7.39136V8.26092H51.7391V7.39136H52.6087Z" fill="black"/>
<path d="M52.1739 7.82605V8.69562H51.3043V7.82605H52.1739Z" fill="black"/>
<path d="M51.7392 8.26086V9.13043H50.8696V8.26086H51.7392Z" fill="black"/>
<path d="M51.3044 8.69568V9.56524H50.4348V8.69568H51.3044Z" fill="black"/>
<path d="M50.8696 9.13049V10.0001H50V9.13049H50.8696Z" fill="black"/>
<path d="M50.4348 9.56519V10.4348H46.5217V9.56519H50.4348Z" fill="black"/>
<path d="M50.4348 10.4348V13.4783H49.5652V10.4348H50.4348Z" fill="black"/>
<path d="M53.4783 12.6086V13.4782H50.4348V12.6086H53.4783Z" fill="black"/>
<path d="M53.4782 13.4783V16.087H52.6086V13.4783H53.4782Z" fill="black"/>
<path d="M56.9565 16.0869V16.9565H52.6086V16.0869H56.9565Z" fill="black"/>
<path d="M56.9565 19.5652V20.4348H52.6086V19.5652H56.9565Z" fill="black"/>
<path d="M52.6087 16.0869V16.9565H43.0435V16.0869H52.6087Z" fill="black"/>
<path d="M43.913 3.04346V16.0869H43.0435V3.04346H43.913Z" fill="black"/>
<path d="M56.9565 16.9565V19.5652H56.0869V16.9565H56.9565Z" fill="black"/>
<path d="M40.4348 3.04346V7.39128H39.5652V3.04346H40.4348Z" fill="black"/>
<path d="M43.0435 3.04346V3.91302H40.4348V3.04346H43.0435Z" fill="black"/>
<path d="M47.3913 7.39136V9.56527H46.5217V7.39136H47.3913Z" fill="black"/>
<path d="M47.3913 6.52173V7.39129H43.9131V6.52173H47.3913Z" fill="black"/>
<path d="M43.4782 16.5217V17.3913H42.6086V16.5217H43.4782Z" fill="black"/>
<path d="M43.0435 16.9565V17.8261H42.174V16.9565H43.0435Z" fill="black"/>
<path d="M42.6087 17.3914V18.2609H41.7391V17.3914H42.6087Z" fill="black"/>
<path d="M42.1739 17.826V18.6956H41.3043V17.826H42.1739Z" fill="black"/>
<path d="M41.7391 18.2609V19.1304H40.8695V18.2609H41.7391Z" fill="black"/>
<path d="M41.3044 18.6957V19.5652H40.4348V18.6957H41.3044Z" fill="black"/>
<path d="M40.8696 19.1305V20.0001H40V19.1305H40.8696Z" fill="black"/>
<path d="M40.4348 19.5652V20.4348H39.5652V19.5652H40.4348Z" fill="black"/>
<path d="M40.0001 20V20.8696H39.1305V20H40.0001Z" fill="black"/>
<path d="M39.5652 20.4348V21.3044H38.6957V20.4348H39.5652Z" fill="black"/>
<path d="M39.1304 20.8695V21.7391H38.2609V20.8695H39.1304Z" fill="black"/>
<path d="M38.6956 21.3043V22.1739H37.826V21.3043H38.6956Z" fill="black"/>
<path d="M38.2609 21.7391V22.6087H37.3914V21.7391H38.2609Z" fill="black"/>
<path d="M37.8261 22.174V23.0435H36.9565V22.174H37.8261Z" fill="black"/>
<path d="M37.3913 22.6086V23.4782H36.5217V22.6086H37.3913Z" fill="black"/>
<path d="M36.9565 23.0435V23.913H36.0869V23.0435H36.9565Z" fill="black"/>
<path d="M36.5218 23.4783V24.3478H35.6522V23.4783H36.5218Z" fill="black"/>
<path d="M36.087 23.9131V24.7827H35.2174V23.9131H36.087Z" fill="black"/>
<path d="M35.6522 24.3478V25.2173H34.7826V24.3478H35.6522Z" fill="black"/>
<path d="M35.2173 24.7826V25.6522H34.3478V24.7826H35.2173Z" fill="black"/>
<path d="M53.0435 56.9565H48.6957V56.0869H53.0435V56.9565Z" fill="black"/>
<path d="M56.9565 53.0435H53.0435V52.174H56.9565V53.0435Z" fill="black"/>
<path d="M56.0869 49.5652H52.6086V48.6957H56.0869V49.5652Z" fill="black"/>
<path d="M53.0435 56.087H52.174V52.174H53.0435V56.087Z" fill="black"/>
<path d="M56.9565 52.1739H56.0869V48.6957H56.9565V52.1739Z" fill="black"/>
<path d="M49.5652 56.0869H48.6957V52.6086H49.5652V56.0869Z" fill="black"/>
<path d="M52.6087 52.6087H51.7391V51.7391H52.6087V52.6087Z" fill="black"/>
<path d="M52.1739 52.1739H51.3043V51.3043H52.1739V52.1739Z" fill="black"/>
<path d="M51.7392 51.7392H50.8696V50.8696H51.7392V51.7392Z" fill="black"/>
<path d="M51.3044 51.3044H50.4348V50.4348H51.3044V51.3044Z" fill="black"/>
<path d="M50.8696 50.8696H50V50H50.8696V50.8696Z" fill="black"/>
<path d="M50.4348 50.4348H49.5652V46.5217H50.4348V50.4348Z" fill="black"/>
<path d="M49.5652 50.4348H46.5217V49.5652H49.5652V50.4348Z" fill="black"/>
<path d="M47.3913 53.4783H46.5217V50.4348H47.3913V53.4783Z" fill="black"/>
<path d="M46.5218 53.4782H43.9131V52.6086H46.5218V53.4782Z" fill="black"/>
<path d="M43.913 56.9565H43.0435V52.6086H43.913V56.9565Z" fill="black"/>
<path d="M40.4348 56.9565H39.5652V52.6086H40.4348V56.9565Z" fill="black"/>
<path d="M43.913 52.6087H43.0435V43.0435H43.913V52.6087Z" fill="black"/>
<path d="M56.9566 43.913H43.9131V43.0435H56.9566V43.913Z" fill="black"/>
<path d="M43.0435 56.9565H40.4348V56.0869H43.0435V56.9565Z" fill="black"/>
<path d="M56.9565 40.4348H52.6086V39.5652H56.9565V40.4348Z" fill="black"/>
<path d="M56.9565 43.0435H56.0869V40.4348H56.9565V43.0435Z" fill="black"/>
<path d="M52.6087 47.3913H50.4348V46.5217H52.6087V47.3913Z" fill="black"/>
<path d="M53.4782 47.3913H52.6086V43.9131H53.4782V47.3913Z" fill="black"/>
<path d="M43.4782 43.4782H42.6086V42.6086H43.4782V43.4782Z" fill="black"/>
<path d="M43.0435 43.0435H42.174V42.174H43.0435V43.0435Z" fill="black"/>
<path d="M42.6087 42.6087H41.7391V41.7391H42.6087V42.6087Z" fill="black"/>
<path d="M42.1739 42.1739H41.3043V41.3043H42.1739V42.1739Z" fill="black"/>
<path d="M41.7391 41.7391H40.8695V40.8695H41.7391V41.7391Z" fill="black"/>
<path d="M41.3044 41.3044H40.4348V40.4348H41.3044V41.3044Z" fill="black"/>
<path d="M40.8696 40.8696H40V40H40.8696V40.8696Z" fill="black"/>
<path d="M40.4348 40.4348H39.5652V39.5652H40.4348V40.4348Z" fill="black"/>
<path d="M40.0001 40.0001H39.1305V39.1305H40.0001V40.0001Z" fill="black"/>
<path d="M39.5652 39.5652H38.6957V38.6957H39.5652V39.5652Z" fill="black"/>
<path d="M39.1304 39.1304H38.2609V38.2609H39.1304V39.1304Z" fill="black"/>
<path d="M38.6956 38.6956H37.826V37.826H38.6956V38.6956Z" fill="black"/>
<path d="M38.2609 38.2609H37.3914V37.3914H38.2609V38.2609Z" fill="black"/>
<path d="M37.8261 37.8261H36.9565V36.9565H37.8261V37.8261Z" fill="black"/>
<path d="M37.3913 37.3913H36.5217V36.5217H37.3913V37.3913Z" fill="black"/>
<path d="M36.9565 36.9565H36.0869V36.0869H36.9565V36.9565Z" fill="black"/>
<path d="M36.5218 36.5218H35.6522V35.6522H36.5218V36.5218Z" fill="black"/>
<path d="M36.087 36.087H35.2174V35.2174H36.087V36.087Z" fill="black"/>
<path d="M35.6522 35.6522H34.7826V34.7826H35.6522V35.6522Z" fill="black"/>
<path d="M35.2173 35.2173H34.3478V34.3478H35.2173V35.2173Z" fill="black"/>
<path d="M3.04346 53.0435V48.6957H3.91302V53.0435H3.04346Z" fill="black"/>
<path d="M6.95654 56.9565V53.0435H7.82611V56.9565H6.95654Z" fill="black"/>
<path d="M10.4348 56.0869V52.6086H11.3044V56.0869H10.4348Z" fill="black"/>
<path d="M3.91309 53.0435V52.174H7.82613V53.0435H3.91309Z" fill="black"/>
<path d="M7.82605 56.9565V56.0869H11.3043V56.9565H7.82605Z" fill="black"/>
<path d="M3.91309 49.5652V48.6957H7.39135V49.5652H3.91309Z" fill="black"/>
<path d="M7.39136 52.6087V51.7391H8.26092V52.6087H7.39136Z" fill="black"/>
<path d="M7.82605 52.1739V51.3043H8.69562V52.1739H7.82605Z" fill="black"/>
<path d="M8.26086 51.7392V50.8696H9.13043V51.7392H8.26086Z" fill="black"/>
<path d="M8.69568 51.3044V50.4348H9.56524V51.3044H8.69568Z" fill="black"/>
<path d="M9.13049 50.8696V50H10.0001V50.8696H9.13049Z" fill="black"/>
<path d="M9.56519 50.4348V49.5652H13.4782V50.4348H9.56519Z" fill="black"/>
<path d="M9.56519 49.5652V46.5217H10.4348V49.5652H9.56519Z" fill="black"/>
<path d="M6.52173 47.3913V46.5217H9.56521V47.3913H6.52173Z" fill="black"/>
<path d="M6.52173 46.5218V43.9131H7.39129V46.5218H6.52173Z" fill="black"/>
<path d="M3.04346 43.913V43.0435H7.39128V43.913H3.04346Z" fill="black"/>
<path d="M3.04346 40.4348V39.5652H7.39128V40.4348H3.04346Z" fill="black"/>
<path d="M7.39136 43.913V43.0435H16.9566V43.913H7.39136Z" fill="black"/>
<path d="M16.0869 56.9566V43.9131H16.9565V56.9566H16.0869Z" fill="black"/>
<path d="M3.04346 43.0435V40.4348H3.91302V43.0435H3.04346Z" fill="black"/>
<path d="M19.5652 56.9565V52.6086H20.4348V56.9565H19.5652Z" fill="black"/>
<path d="M16.9565 56.9565V56.0869H19.5652V56.9565H16.9565Z" fill="black"/>
<path d="M12.6086 52.6087V50.4348H13.4782V52.6087H12.6086Z" fill="black"/>
<path d="M12.6086 53.4782V52.6086H16.0869V53.4782H12.6086Z" fill="black"/>
<path d="M16.5217 43.4782V42.6086H17.3913V43.4782H16.5217Z" fill="black"/>
<path d="M16.9565 43.0435V42.174H17.8261V43.0435H16.9565Z" fill="black"/>
<path d="M17.3914 42.6087V41.7391H18.2609V42.6087H17.3914Z" fill="black"/>
<path d="M17.826 42.1739V41.3043H18.6956V42.1739H17.826Z" fill="black"/>
<path d="M18.2609 41.7391V40.8695H19.1304V41.7391H18.2609Z" fill="black"/>
<path d="M18.6957 41.3044V40.4348H19.5652V41.3044H18.6957Z" fill="black"/>
<path d="M19.1305 40.8696V40H20.0001V40.8696H19.1305Z" fill="black"/>
<path d="M19.5652 40.4348V39.5652H20.4348V40.4348H19.5652Z" fill="black"/>
<path d="M20 40.0001V39.1305H20.8696V40.0001H20Z" fill="black"/>
<path d="M20.4348 39.5652V38.6957H21.3044V39.5652H20.4348Z" fill="black"/>
<path d="M20.8695 39.1304V38.2609H21.7391V39.1304H20.8695Z" fill="black"/>
<path d="M21.3043 38.6956V37.826H22.1739V38.6956H21.3043Z" fill="black"/>
<path d="M21.7391 38.2609V37.3914H22.6087V38.2609H21.7391Z" fill="black"/>
<path d="M22.174 37.8261V36.9565H23.0435V37.8261H22.174Z" fill="black"/>
<path d="M22.6086 37.3913V36.5217H23.4782V37.3913H22.6086Z" fill="black"/>
<path d="M23.0435 36.9565V36.0869H23.913V36.9565H23.0435Z" fill="black"/>
<path d="M23.4783 36.5218V35.6522H24.3478V36.5218H23.4783Z" fill="black"/>
<path d="M23.9131 36.087V35.2174H24.7827V36.087H23.9131Z" fill="black"/>
<path d="M24.3478 35.6522V34.7826H25.2173V35.6522H24.3478Z" fill="black"/>
<path d="M24.7826 35.2173V34.3478H25.6522V35.2173H24.7826Z" fill="black"/>
<path d="M25.2174 25.2174H26.087V34.7826H25.2174V25.2174Z" fill="black"/>
<path d="M33.9131 25.2174H34.7827V34.7826H33.9131V25.2174Z" fill="black"/>
<path d="M26.0869 25.2174H33.913V26.087H26.0869V25.2174Z" fill="black"/>
<path d="M26.0869 33.9131H33.913V34.7827H26.0869V33.9131Z" fill="black"/>
<path d="M19.1305 9.56519H20.0001V16.5217H19.1305V9.56519Z" fill="black"/>
<path d="M20 9.56519H23.0435V10.4348H20V9.56519Z" fill="black"/>
<path d="M20 15.6522H23.0435V16.5218H20V15.6522Z" fill="black"/>
<path d="M22.174 16.5217H23.0435V19.5652H22.174V16.5217Z" fill="black"/>
<path d="M22.174 6.52173H23.0435V9.56521H22.174V6.52173Z" fill="black"/>
<path d="M23.0435 6.52173H26.0869V7.39129H23.0435V6.52173Z" fill="black"/>
<path d="M23.0435 18.6957H26.0869V19.5652H23.0435V18.6957Z" fill="black"/>
<path d="M25.2174 19.5652H26.087V22.6087H25.2174V19.5652Z" fill="black"/>
<path d="M25.2174 3.47827H26.087V6.52175H25.2174V3.47827Z" fill="black"/>
<path d="M26.0869 3.47827H29.1304V4.34784H26.0869V3.47827Z" fill="black"/>
<path d="M28.2609 0H31.7391V0.869565H28.2609V0Z" fill="black"/>
<path d="M26.0869 21.7391H28.6956V22.6087H26.0869V21.7391Z" fill="black"/>
<path d="M27.826 12.174H28.6956V21.7392H27.826V12.174Z" fill="black"/>
<path d="M31.3043 12.174H32.1739V21.7392H31.3043V12.174Z" fill="black"/>
<path d="M33.9131 18.6957H34.7827V21.7392H33.9131V18.6957Z" fill="black"/>
<path d="M36.9565 15.6522H37.8261V18.6957H36.9565V15.6522Z" fill="black"/>
<path d="M36.9565 6.52173H37.8261V9.56521H36.9565V6.52173Z" fill="black"/>
<path d="M33.9131 3.47827H34.7827V6.52175H33.9131V3.47827Z" fill="black"/>
<path d="M30.8695 0.869507H31.7391V3.4782H30.8695V0.869507Z" fill="black"/>
<path d="M28.2609 0.869507H29.1304V3.4782H28.2609V0.869507Z" fill="black"/>
<path d="M40 9.56519H40.8696V15.6521H40V9.56519Z" fill="black"/>
<path d="M28.6957 12.174H31.3044V13.0435H28.6957V12.174Z" fill="black"/>
<path d="M31.3043 21.7391H34.7826V22.6087H31.3043V21.7391Z" fill="black"/>
<path d="M34.7826 18.6957H37.8261V19.5652H34.7826V18.6957Z" fill="black"/>
<path d="M37.826 15.6522H40.8695V16.5218H37.826V15.6522Z" fill="black"/>
<path d="M36.9565 9.56519H40V10.4348H36.9565V9.56519Z" fill="black"/>
<path d="M33.9131 6.52173H36.9566V7.39129H33.9131V6.52173Z" fill="black"/>
<path d="M30.8695 3.47827H33.913V4.34784H30.8695V3.47827Z" fill="black"/>
<path d="M40.8696 50.4348H40V43.4783H40.8696V50.4348Z" fill="black"/>
<path d="M40 50.4348H36.9565V49.5652H40V50.4348Z" fill="black"/>
<path d="M40 44.3478H36.9565V43.4783H40V44.3478Z" fill="black"/>
<path d="M37.8261 43.4783H36.9565V40.4348H37.8261V43.4783Z" fill="black"/>
<path d="M37.8261 53.4783H36.9565V50.4348H37.8261V53.4783Z" fill="black"/>
<path d="M36.9566 53.4782H33.9131V52.6086H36.9566V53.4782Z" fill="black"/>
<path d="M36.9566 41.3044H33.9131V40.4348H36.9566V41.3044Z" fill="black"/>
<path d="M34.7827 40.4348H33.9131V37.3914H34.7827V40.4348Z" fill="black"/>
<path d="M34.7827 56.5217H33.9131V53.4783H34.7827V56.5217Z" fill="black"/>
<path d="M33.913 56.5218H30.8695V55.6522H33.913V56.5218Z" fill="black"/>
<path d="M31.7391 60.0001H28.2609V59.1305H31.7391V60.0001Z" fill="black"/>
<path d="M33.913 38.2609H31.3043V37.3914H33.913V38.2609Z" fill="black"/>
<path d="M32.1739 47.8261H31.3043V38.2609H32.1739V47.8261Z" fill="black"/>
<path d="M28.6956 47.8261H27.826V38.2609H28.6956V47.8261Z" fill="black"/>
<path d="M26.087 41.3043H25.2174V38.2609H26.087V41.3043Z" fill="black"/>
<path d="M23.0435 44.3478H22.174V41.3043H23.0435V44.3478Z" fill="black"/>
<path d="M23.0435 53.4783H22.174V50.4348H23.0435V53.4783Z" fill="black"/>
<path d="M26.087 56.5217H25.2174V53.4783H26.087V56.5217Z" fill="black"/>
<path d="M29.1304 59.1304H28.2609V56.5217H29.1304V59.1304Z" fill="black"/>
<path d="M31.7391 59.1304H30.8695V56.5217H31.7391V59.1304Z" fill="black"/>
<path d="M20.0001 50.4347H19.1305V44.3478H20.0001V50.4347Z" fill="black"/>
<path d="M31.3044 47.8261H28.6957V46.9565H31.3044V47.8261Z" fill="black"/>
<path d="M28.6957 38.2609H25.2174V37.3914H28.6957V38.2609Z" fill="black"/>
<path d="M25.2174 41.3044H22.174V40.4348H25.2174V41.3044Z" fill="black"/>
<path d="M22.174 44.3478H19.1305V43.4783H22.174V44.3478Z" fill="black"/>
<path d="M23.0435 50.4348H20V49.5652H23.0435V50.4348Z" fill="black"/>
<path d="M26.0869 53.4782H23.0435V52.6086H26.0869V53.4782Z" fill="black"/>
<path d="M29.1304 56.5218H26.0869V55.6522H29.1304V56.5218Z" fill="black"/>
<path d="M9.56519 40.8696V40H16.5217V40.8696H9.56519Z" fill="black"/>
<path d="M9.56519 40V36.9565H10.4348V40H9.56519Z" fill="black"/>
<path d="M15.6522 40V36.9565H16.5218V40H15.6522Z" fill="black"/>
<path d="M16.5217 37.8261V36.9565H19.5652V37.8261H16.5217Z" fill="black"/>
<path d="M6.52173 37.8261V36.9565H9.56521V37.8261H6.52173Z" fill="black"/>
<path d="M6.52173 36.9566V33.9131H7.39129V36.9566H6.52173Z" fill="black"/>
<path d="M18.6957 36.9566V33.9131H19.5652V36.9566H18.6957Z" fill="black"/>
<path d="M19.5652 34.7827V33.9131H22.6087V34.7827H19.5652Z" fill="black"/>
<path d="M3.47827 34.7827V33.9131H6.52175V34.7827H3.47827Z" fill="black"/>
<path d="M3.47827 33.913V30.8695H4.34784V33.913H3.47827Z" fill="black"/>
<path d="M0 31.7391V28.2609H0.869565V31.7391H0Z" fill="black"/>
<path d="M21.7391 33.913V31.3043H22.6087V33.913H21.7391Z" fill="black"/>
<path d="M12.174 32.1739V31.3043H21.7392V32.1739H12.174Z" fill="black"/>
<path d="M12.174 28.6956V27.826H21.7392V28.6956H12.174Z" fill="black"/>
<path d="M18.6957 26.087V25.2174H21.7392V26.087H18.6957Z" fill="black"/>
<path d="M15.6522 23.0435V22.174H18.6957V23.0435H15.6522Z" fill="black"/>
<path d="M6.52173 23.0435V22.174H9.56521V23.0435H6.52173Z" fill="black"/>
<path d="M3.47827 26.087V25.2174H6.52175V26.087H3.47827Z" fill="black"/>
<path d="M0.869507 29.1304V28.2609H3.4782V29.1304H0.869507Z" fill="black"/>
<path d="M0.869507 31.7391V30.8695H3.4782V31.7391H0.869507Z" fill="black"/>
<path d="M9.56519 20.0001V19.1305H15.6521V20.0001H9.56519Z" fill="black"/>
<path d="M12.174 31.3044V28.6957H13.0435V31.3044H12.174Z" fill="black"/>
<path d="M21.7391 28.6957V25.2174H22.6087V28.6957H21.7391Z" fill="black"/>
<path d="M18.6957 25.2174V22.174H19.5652V25.2174H18.6957Z" fill="black"/>
<path d="M15.6522 22.174V19.1305H16.5218V22.174H15.6522Z" fill="black"/>
<path d="M9.56519 23.0435V20H10.4348V23.0435H9.56519Z" fill="black"/>
<path d="M6.52173 26.0869V23.0435H7.39129V26.0869H6.52173Z" fill="black"/>
<path d="M3.47827 29.1304V26.0869H4.34784V29.1304H3.47827Z" fill="black"/>
<path d="M50.4348 19.1305V20.0001H43.4783V19.1305H50.4348Z" fill="black"/>
<path d="M50.4348 20V23.0435H49.5652V20H50.4348Z" fill="black"/>
<path d="M44.3478 20V23.0435H43.4783V20H44.3478Z" fill="black"/>
<path d="M43.4783 22.174V23.0435H40.4348V22.174H43.4783Z" fill="black"/>
<path d="M53.4783 22.174V23.0435H50.4348V22.174H53.4783Z" fill="black"/>
<path d="M53.4782 23.0435V26.0869H52.6086V23.0435H53.4782Z" fill="black"/>
<path d="M41.3044 23.0435V26.0869H40.4348V23.0435H41.3044Z" fill="black"/>
<path d="M40.4348 25.2174V26.087H37.3914V25.2174H40.4348Z" fill="black"/>
<path d="M56.5217 25.2174V26.087H53.4783V25.2174H56.5217Z" fill="black"/>
<path d="M56.5218 26.0869V29.1304H55.6522V26.0869H56.5218Z" fill="black"/>
<path d="M60.0001 28.2609V31.7391H59.1305V28.2609H60.0001Z" fill="black"/>
<path d="M38.2609 26.0869V28.6956H37.3914V26.0869H38.2609Z" fill="black"/>
<path d="M47.8261 27.826V28.6956H38.2609V27.826H47.8261Z" fill="black"/>
<path d="M47.8261 31.3043V32.1739H38.2609V31.3043H47.8261Z" fill="black"/>
<path d="M41.3043 33.9131V34.7827H38.2609V33.9131H41.3043Z" fill="black"/>
<path d="M44.3478 36.9565V37.8261H41.3043V36.9565H44.3478Z" fill="black"/>
<path d="M53.4783 36.9565V37.8261H50.4348V36.9565H53.4783Z" fill="black"/>
<path d="M56.5217 33.9131V34.7827H53.4783V33.9131H56.5217Z" fill="black"/>
<path d="M59.1304 30.8695V31.7391H56.5217V30.8695H59.1304Z" fill="black"/>
<path d="M59.1304 28.2609V29.1304H56.5217V28.2609H59.1304Z" fill="black"/>
<path d="M50.4347 40V40.8696H44.3478V40H50.4347Z" fill="black"/>
<path d="M47.8261 28.6957V31.3044H46.9565V28.6957H47.8261Z" fill="black"/>
<path d="M38.2609 31.3043V34.7826H37.3914V31.3043H38.2609Z" fill="black"/>
<path d="M41.3044 34.7826V37.8261H40.4348V34.7826H41.3044Z" fill="black"/>
<path d="M44.3478 37.826V40.8695H43.4783V37.826H44.3478Z" fill="black"/>
<path d="M50.4348 36.9565V40H49.5652V36.9565H50.4348Z" fill="black"/>
<path d="M53.4782 33.9131V36.9566H52.6086V33.9131H53.4782Z" fill="black"/>
<path d="M56.5218 30.8695V33.913H55.6522V30.8695H56.5218Z" fill="black"/>
</g>
<defs>
<clipPath id="clip0_817_3536">
<rect width="60" height="60" fill="white"/>
</clipPath>
</defs>
</svg>
