<svg width="60" height="60" viewBox="0 0 60 60" fill="none" xmlns="http://www.w3.org/2000/svg">
<g clip-path="url(#clip0_819_4169)">
<path d="M40.5 40.5H52.5V52.5H40.5V40.5Z" fill="#FDEA03"/>
<path d="M24.375 24.375H35.625V35.625H24.375V24.375Z" fill="#FDEA03"/>
<path d="M43.5 43.5H45.75V45.75H43.5V43.5Z" fill="#FE7C16"/>
<path d="M45.375 41.625H47.625V43.875H45.375V41.625Z" fill="#FE7C16"/>
<path d="M47.25 43.5H49.5V45.75H47.25V43.5Z" fill="#FE7C16"/>
<path d="M49.125 45.375H51.375V47.625H49.125V45.375Z" fill="#FE7C16"/>
<path d="M47.25 47.25H49.5V49.5H47.25V47.25Z" fill="#FE7C16"/>
<path d="M45.375 49.125H47.625V51.375H45.375V49.125Z" fill="#FE7C16"/>
<path d="M43.5 47.25H45.75V49.5H43.5V47.25Z" fill="#FE7C16"/>
<path d="M41.625 45.375H43.875V47.625H41.625V45.375Z" fill="#FE7C16"/>
<path d="M27 27H29.25V29.25H27V27Z" fill="#FE7C16"/>
<path d="M28.875 25.125H31.125V27.375H28.875V25.125Z" fill="#FE7C16"/>
<path d="M30.75 27H33V29.25H30.75V27Z" fill="#FE7C16"/>
<path d="M32.625 28.875H34.875V31.125H32.625V28.875Z" fill="#FE7C16"/>
<path d="M30.75 30.75H33V33H30.75V30.75Z" fill="#FE7C16"/>
<path d="M28.875 32.625H31.125V34.875H28.875V32.625Z" fill="#FE7C16"/>
<path d="M27 30.75H29.25V33H27V30.75Z" fill="#FE7C16"/>
<path d="M25.125 28.875H27.375V31.125H25.125V28.875Z" fill="#FE7C16"/>
<path d="M7.125 7.125H19.125V19.125H7.125V7.125Z" fill="#FE7C16"/>
<path d="M10.125 12H12.375V14.25H10.125V12Z" fill="#FDEA03"/>
<path d="M13.875 12H16.125V14.25H13.875V12Z" fill="#FDEA03"/>
<path d="M12 10.125H14.25V12.375H12V10.125Z" fill="#FDEA03"/>
<path d="M12 13.875H14.25V16.125H12V13.875Z" fill="#FDEA03"/>
<path d="M57.75 57.75H57V57H57.75V57.75Z" fill="black"/>
<path d="M54.375 54.375H53.625V53.625H54.375V54.375Z" fill="black"/>
<path d="M39.375 54.375H38.625V53.625H39.375V54.375Z" fill="black"/>
<path d="M54 54H53.25V53.25H54V54Z" fill="black"/>
<path d="M39.75 54H39V53.25H39.75V54Z" fill="black"/>
<path d="M53.625 53.625H52.875V52.875H53.625V53.625Z" fill="black"/>
<path d="M40.125 53.625H39.375V52.875H40.125V53.625Z" fill="black"/>
<path d="M46.875 54.375H46.125V53.625H46.875V54.375Z" fill="black"/>
<path d="M57.375 57.375H56.625V56.625H57.375V57.375Z" fill="black"/>
<path d="M57 57H56.25V56.25H57V57Z" fill="black"/>
<path d="M36.75 57H36V56.25H36.75V57Z" fill="black"/>
<path d="M36.375 57.375H35.625V56.625H36.375V57.375Z" fill="black"/>
<path d="M36 57.75H35.25V57H36V57.75Z" fill="black"/>
<path d="M57.75 55.5H57V53.625H57.75V55.5Z" fill="black"/>
<path d="M36 55.5H35.25V53.625H36V55.5Z" fill="black"/>
<path d="M57 54.375H54.375V53.625H57V54.375Z" fill="black"/>
<path d="M38.625 54.375H36V53.625H38.625V54.375Z" fill="black"/>
<path d="M54.375 57H53.625V54.375H54.375V57Z" fill="black"/>
<path d="M39.375 57H38.625V54.375H39.375V57Z" fill="black"/>
<path d="M52.875 57.75H52.125V52.875H52.875V57.75Z" fill="black"/>
<path d="M47.625 57.75H46.875V53.625H47.625V57.75Z" fill="black"/>
<path d="M46.125 57.75H45.375V53.625H46.125V57.75Z" fill="black"/>
<path d="M40.875 57.75H40.125V52.875H40.875V57.75Z" fill="black"/>
<path d="M52.125 57.75H50.25V57H52.125V57.75Z" fill="black"/>
<path d="M45.375 57.75H43.5V57H45.375V57.75Z" fill="black"/>
<path d="M49.5 57.75H47.625V57H49.5V57.75Z" fill="black"/>
<path d="M42.75 57.75H40.875V57H42.75V57.75Z" fill="black"/>
<path d="M51 59.625H48.75V58.875H51V59.625Z" fill="black"/>
<path d="M44.25 59.625H42V58.875H44.25V59.625Z" fill="black"/>
<path d="M51 58.875H50.25V57.75H51V58.875Z" fill="black"/>
<path d="M44.25 58.875H43.5V57.75H44.25V58.875Z" fill="black"/>
<path d="M42.75 58.875H42V57.75H42.75V58.875Z" fill="black"/>
<path d="M49.5 58.875H48.75V57.75H49.5V58.875Z" fill="black"/>
<path d="M52.875 52.875H57.75V52.125H52.875V52.875Z" fill="black"/>
<path d="M35.25 52.875H40.125V52.125H35.25V52.875Z" fill="black"/>
<path d="M55.5 57.75H53.625V57H55.5V57.75Z" fill="black"/>
<path d="M39.375 57.75H37.5V57H39.375V57.75Z" fill="black"/>
<path d="M56.25 57.75H55.5V56.25H56.25V57.75Z" fill="black"/>
<path d="M37.5 57.75H36.75V56.25H37.5V57.75Z" fill="black"/>
<path d="M57.75 56.25H56.25V55.5H57.75V56.25Z" fill="black"/>
<path d="M36.75 56.25H35.25V55.5H36.75V56.25Z" fill="black"/>
<path d="M35.25 35.25H36V36H35.25V35.25Z" fill="black"/>
<path d="M38.625 38.625H39.375V39.375H38.625V38.625Z" fill="black"/>
<path d="M53.625 38.625H54.375V39.375H53.625V38.625Z" fill="black"/>
<path d="M39 39H39.75V39.75H39V39Z" fill="black"/>
<path d="M53.25 39H54V39.75H53.25V39Z" fill="black"/>
<path d="M39.375 39.375H40.125V40.125H39.375V39.375Z" fill="black"/>
<path d="M52.875 39.375H53.625V40.125H52.875V39.375Z" fill="black"/>
<path d="M46.125 38.625H46.875V39.375H46.125V38.625Z" fill="black"/>
<path d="M35.625 35.625H36.375V36.375H35.625V35.625Z" fill="black"/>
<path d="M36 36H36.75V36.75H36V36Z" fill="black"/>
<path d="M56.25 36H57V36.75H56.25V36Z" fill="black"/>
<path d="M56.625 35.625H57.375V36.375H56.625V35.625Z" fill="black"/>
<path d="M57 35.25H57.75V36H57V35.25Z" fill="black"/>
<path d="M35.25 37.5H36V39.375H35.25V37.5Z" fill="black"/>
<path d="M57 37.5H57.75V39.375H57V37.5Z" fill="black"/>
<path d="M36 38.625H38.625V39.375H36V38.625Z" fill="black"/>
<path d="M54.375 38.625H57V39.375H54.375V38.625Z" fill="black"/>
<path d="M38.625 36H39.375V38.625H38.625V36Z" fill="black"/>
<path d="M53.625 36H54.375V38.625H53.625V36Z" fill="black"/>
<path d="M40.125 35.25H40.875V40.125H40.125V35.25Z" fill="black"/>
<path d="M45.375 35.25H46.125V39.375H45.375V35.25Z" fill="black"/>
<path d="M46.875 35.25H47.625V39.375H46.875V35.25Z" fill="black"/>
<path d="M52.125 35.25H52.875V40.125H52.125V35.25Z" fill="black"/>
<path d="M40.875 35.25H42.75V36H40.875V35.25Z" fill="black"/>
<path d="M47.625 35.25H49.5V36H47.625V35.25Z" fill="black"/>
<path d="M43.5 35.25H45.375V36H43.5V35.25Z" fill="black"/>
<path d="M50.25 35.25H52.125V36H50.25V35.25Z" fill="black"/>
<path d="M42 33.375H44.25V34.125H42V33.375Z" fill="black"/>
<path d="M48.75 33.375H51V34.125H48.75V33.375Z" fill="black"/>
<path d="M42 34.125H42.75V35.25H42V34.125Z" fill="black"/>
<path d="M48.75 34.125H49.5V35.25H48.75V34.125Z" fill="black"/>
<path d="M50.25 34.125H51V35.25H50.25V34.125Z" fill="black"/>
<path d="M43.5 34.125H44.25V35.25H43.5V34.125Z" fill="black"/>
<path d="M40.125 40.125H35.25V40.875H40.125V40.125Z" fill="black"/>
<path d="M57.75 40.125H52.875V40.875H57.75V40.125Z" fill="black"/>
<path d="M37.5 35.25H39.375V36H37.5V35.25Z" fill="black"/>
<path d="M53.625 35.25H55.5V36H53.625V35.25Z" fill="black"/>
<path d="M36.75 35.25H37.5V36.75H36.75V35.25Z" fill="black"/>
<path d="M55.5 35.25H56.25V36.75H55.5V35.25Z" fill="black"/>
<path d="M35.25 36.75H36.75V37.5H35.25V36.75Z" fill="black"/>
<path d="M56.25 36.75H57.75V37.5H56.25V36.75Z" fill="black"/>
<path d="M38.625 46.875V46.125H39.375V46.875H38.625Z" fill="black"/>
<path d="M35.25 47.625V46.875H39.375V47.625H35.25Z" fill="black"/>
<path d="M35.25 46.125V45.375H39.375V46.125H35.25Z" fill="black"/>
<path d="M35.25 52.125V50.25H36V52.125H35.25Z" fill="black"/>
<path d="M35.25 45.375V43.5H36V45.375H35.25Z" fill="black"/>
<path d="M35.25 49.5V47.625H36V49.5H35.25Z" fill="black"/>
<path d="M35.25 42.75V40.875H36V42.75H35.25Z" fill="black"/>
<path d="M33.375 51V48.75H34.125V51H33.375Z" fill="black"/>
<path d="M33.375 44.25V42H34.125V44.25H33.375Z" fill="black"/>
<path d="M34.125 51V50.25H35.25V51H34.125Z" fill="black"/>
<path d="M34.125 44.25V43.5H35.25V44.25H34.125Z" fill="black"/>
<path d="M34.125 42.75V42H35.25V42.75H34.125Z" fill="black"/>
<path d="M34.125 49.5V48.75H35.25V49.5H34.125Z" fill="black"/>
<path d="M54.375 46.125V46.875H53.625V46.125H54.375Z" fill="black"/>
<path d="M57.75 45.375V46.125H53.625V45.375H57.75Z" fill="black"/>
<path d="M57.75 46.875V47.625H53.625V46.875H57.75Z" fill="black"/>
<path d="M57.75 40.875V42.75H57V40.875H57.75Z" fill="black"/>
<path d="M57.75 47.625V49.5H57V47.625H57.75Z" fill="black"/>
<path d="M57.75 43.5V45.375H57V43.5H57.75Z" fill="black"/>
<path d="M57.75 50.25V52.125H57V50.25H57.75Z" fill="black"/>
<path d="M59.625 42V44.25H58.875V42H59.625Z" fill="black"/>
<path d="M59.625 48.75V51H58.875V48.75H59.625Z" fill="black"/>
<path d="M58.875 42V42.75H57.75V42H58.875Z" fill="black"/>
<path d="M58.875 48.75V49.5H57.75V48.75H58.875Z" fill="black"/>
<path d="M58.875 50.25V51H57.75V50.25H58.875Z" fill="black"/>
<path d="M58.875 43.5V44.25H57.75V43.5H58.875Z" fill="black"/>
<path d="M23.625 24.375H24.375V35.625H23.625V24.375Z" fill="black"/>
<path d="M35.625 24.375H36.375V35.625H35.625V24.375Z" fill="black"/>
<path d="M24.375 23.625H35.625V24.375H24.375V23.625Z" fill="black"/>
<path d="M24.375 35.625H35.625V36.375H24.375V35.625Z" fill="black"/>
<path d="M24.375 24.375H23.625V23.625H24.375V24.375Z" fill="black"/>
<path d="M21 21H20.25V20.25H21V21Z" fill="black"/>
<path d="M6 21H5.25V20.25H6V21Z" fill="black"/>
<path d="M20.625 20.625H19.875V19.875H20.625V20.625Z" fill="black"/>
<path d="M6.375 20.625H5.625V19.875H6.375V20.625Z" fill="black"/>
<path d="M20.25 20.25H19.5V19.5H20.25V20.25Z" fill="black"/>
<path d="M6.75 20.25H6V19.5H6.75V20.25Z" fill="black"/>
<path d="M13.5 21H12.75V20.25H13.5V21Z" fill="black"/>
<path d="M24 24H23.25V23.25H24V24Z" fill="black"/>
<path d="M23.625 23.625H22.875V22.875H23.625V23.625Z" fill="black"/>
<path d="M3.375 23.625H2.625V22.875H3.375V23.625Z" fill="black"/>
<path d="M3 24H2.25V23.25H3V24Z" fill="black"/>
<path d="M2.625 24.375H1.875V23.625H2.625V24.375Z" fill="black"/>
<path d="M24.375 22.125H23.625V20.25H24.375V22.125Z" fill="black"/>
<path d="M2.625 22.125H1.875V20.25H2.625V22.125Z" fill="black"/>
<path d="M23.625 21H21V20.25H23.625V21Z" fill="black"/>
<path d="M5.25 21H2.625V20.25H5.25V21Z" fill="black"/>
<path d="M21 23.625H20.25V21H21V23.625Z" fill="black"/>
<path d="M6 23.625H5.25V21H6V23.625Z" fill="black"/>
<path d="M19.5 24.375H18.75V19.5H19.5V24.375Z" fill="black"/>
<path d="M14.25 24.375H13.5V20.25H14.25V24.375Z" fill="black"/>
<path d="M12.75 24.375H12V20.25H12.75V24.375Z" fill="black"/>
<path d="M7.5 24.375H6.75V19.5H7.5V24.375Z" fill="black"/>
<path d="M18.75 24.375H16.875V23.625H18.75V24.375Z" fill="black"/>
<path d="M12 24.375H10.125V23.625H12V24.375Z" fill="black"/>
<path d="M16.125 24.375H14.25V23.625H16.125V24.375Z" fill="black"/>
<path d="M9.375 24.375H7.5V23.625H9.375V24.375Z" fill="black"/>
<path d="M17.625 26.25H15.375V25.5H17.625V26.25Z" fill="black"/>
<path d="M10.875 26.25H8.625V25.5H10.875V26.25Z" fill="black"/>
<path d="M17.625 25.5H16.875V24.375H17.625V25.5Z" fill="black"/>
<path d="M10.875 25.5H10.125V24.375H10.875V25.5Z" fill="black"/>
<path d="M9.375 25.5H8.625V24.375H9.375V25.5Z" fill="black"/>
<path d="M16.125 25.5H15.375V24.375H16.125V25.5Z" fill="black"/>
<path d="M19.5 19.5H24.375V18.75H19.5V19.5Z" fill="black"/>
<path d="M1.875 19.5H6.75V18.75H1.875V19.5Z" fill="black"/>
<path d="M22.125 24.375H20.25V23.625H22.125V24.375Z" fill="black"/>
<path d="M6 24.375H4.125V23.625H6V24.375Z" fill="black"/>
<path d="M22.875 24.375H22.125V22.875H22.875V24.375Z" fill="black"/>
<path d="M4.125 24.375H3.375V22.875H4.125V24.375Z" fill="black"/>
<path d="M24.375 22.875H22.875V22.125H24.375V22.875Z" fill="black"/>
<path d="M3.375 22.875H1.875V22.125H3.375V22.875Z" fill="black"/>
<path d="M1.875 1.875H2.625V2.625H1.875V1.875Z" fill="black"/>
<path d="M5.25 5.25H6V6H5.25V5.25Z" fill="black"/>
<path d="M20.25 5.25H21V6H20.25V5.25Z" fill="black"/>
<path d="M5.625 5.625H6.375V6.375H5.625V5.625Z" fill="black"/>
<path d="M19.875 5.625H20.625V6.375H19.875V5.625Z" fill="black"/>
<path d="M6 6H6.75V6.75H6V6Z" fill="black"/>
<path d="M19.5 6H20.25V6.75H19.5V6Z" fill="black"/>
<path d="M12.75 5.25H13.5V6H12.75V5.25Z" fill="black"/>
<path d="M2.25 2.25H3V3H2.25V2.25Z" fill="black"/>
<path d="M2.625 2.625H3.375V3.375H2.625V2.625Z" fill="black"/>
<path d="M22.875 2.625H23.625V3.375H22.875V2.625Z" fill="black"/>
<path d="M23.25 2.25H24V3H23.25V2.25Z" fill="black"/>
<path d="M23.625 1.875H24.375V2.625H23.625V1.875Z" fill="black"/>
<path d="M1.875 4.125H2.625V6H1.875V4.125Z" fill="black"/>
<path d="M23.625 4.125H24.375V6H23.625V4.125Z" fill="black"/>
<path d="M2.625 5.25H5.25V6H2.625V5.25Z" fill="black"/>
<path d="M21 5.25H23.625V6H21V5.25Z" fill="black"/>
<path d="M5.25 2.625H6V5.25H5.25V2.625Z" fill="black"/>
<path d="M20.25 2.625H21V5.25H20.25V2.625Z" fill="black"/>
<path d="M6.75 1.875H7.5V6.75H6.75V1.875Z" fill="black"/>
<path d="M12 1.875H12.75V6H12V1.875Z" fill="black"/>
<path d="M13.5 1.875H14.25V6H13.5V1.875Z" fill="black"/>
<path d="M18.75 1.875H19.5V6.75H18.75V1.875Z" fill="black"/>
<path d="M7.5 1.875H9.375V2.625H7.5V1.875Z" fill="black"/>
<path d="M14.25 1.875H16.125V2.625H14.25V1.875Z" fill="black"/>
<path d="M10.125 1.875H12V2.625H10.125V1.875Z" fill="black"/>
<path d="M16.875 1.875H18.75V2.625H16.875V1.875Z" fill="black"/>
<path d="M8.625 0H10.875V0.75H8.625V0Z" fill="black"/>
<path d="M15.375 0H17.625V0.75H15.375V0Z" fill="black"/>
<path d="M8.625 0.75H9.375V1.875H8.625V0.75Z" fill="black"/>
<path d="M15.375 0.75H16.125V1.875H15.375V0.75Z" fill="black"/>
<path d="M16.875 0.75H17.625V1.875H16.875V0.75Z" fill="black"/>
<path d="M10.125 0.75H10.875V1.875H10.125V0.75Z" fill="black"/>
<path d="M6.75 6.75H1.875V7.5H6.75V6.75Z" fill="black"/>
<path d="M24.375 6.75H19.5V7.5H24.375V6.75Z" fill="black"/>
<path d="M4.125 1.875H6V2.625H4.125V1.875Z" fill="black"/>
<path d="M20.25 1.875H22.125V2.625H20.25V1.875Z" fill="black"/>
<path d="M3.375 1.875H4.125V3.375H3.375V1.875Z" fill="black"/>
<path d="M22.125 1.875H22.875V3.375H22.125V1.875Z" fill="black"/>
<path d="M1.875 3.375H3.375V4.125H1.875V3.375Z" fill="black"/>
<path d="M22.875 3.375H24.375V4.125H22.875V3.375Z" fill="black"/>
<path d="M5.25 13.5V12.75H6V13.5H5.25Z" fill="black"/>
<path d="M1.875 14.25V13.5H6V14.25H1.875Z" fill="black"/>
<path d="M1.875 12.75V12H6V12.75H1.875Z" fill="black"/>
<path d="M1.875 18.75V16.875H2.625V18.75H1.875Z" fill="black"/>
<path d="M1.875 12V10.125H2.625V12H1.875Z" fill="black"/>
<path d="M1.875 16.125V14.25H2.625V16.125H1.875Z" fill="black"/>
<path d="M1.875 9.375V7.5H2.625V9.375H1.875Z" fill="black"/>
<path d="M0 17.625V15.375H0.75V17.625H0Z" fill="black"/>
<path d="M0 10.875V8.625H0.75V10.875H0Z" fill="black"/>
<path d="M0.75 17.625V16.875H1.875V17.625H0.75Z" fill="black"/>
<path d="M0.75 10.875V10.125H1.875V10.875H0.75Z" fill="black"/>
<path d="M0.75 9.375V8.625H1.875V9.375H0.75Z" fill="black"/>
<path d="M0.75 16.125V15.375H1.875V16.125H0.75Z" fill="black"/>
<path d="M21 12.75V13.5H20.25V12.75H21Z" fill="black"/>
<path d="M24.375 12V12.75H20.25V12H24.375Z" fill="black"/>
<path d="M24.375 13.5V14.25H20.25V13.5H24.375Z" fill="black"/>
<path d="M24.375 7.5V9.375H23.625V7.5H24.375Z" fill="black"/>
<path d="M24.375 14.25V16.125H23.625V14.25H24.375Z" fill="black"/>
<path d="M24.375 10.125V12H23.625V10.125H24.375Z" fill="black"/>
<path d="M24.375 16.875V18.75H23.625V16.875H24.375Z" fill="black"/>
<path d="M26.25 8.625V10.875H25.5V8.625H26.25Z" fill="black"/>
<path d="M26.25 15.375V17.625H25.5V15.375H26.25Z" fill="black"/>
<path d="M25.5 8.625V9.375H24.375V8.625H25.5Z" fill="black"/>
<path d="M25.5 15.375V16.125H24.375V15.375H25.5Z" fill="black"/>
<path d="M25.5 16.875V17.625H24.375V16.875H25.5Z" fill="black"/>
<path d="M25.5 10.125V10.875H24.375V10.125H25.5Z" fill="black"/>
<path d="M18.75 30.75H23.625V31.5H18.75V30.75Z" fill="black"/>
<path d="M18.75 31.5H19.5V36.375H18.75V31.5Z" fill="black"/>
<path d="M19.5 35.625H22.5V36.375H19.5V35.625Z" fill="black"/>
<path d="M21.75 32.25H22.5V35.625H21.75V32.25Z" fill="black"/>
<path d="M20.25 32.25H21.75V33H20.25V32.25Z" fill="black"/>
<path d="M20.25 33H21V34.5H20.25V33Z" fill="black"/>
<path d="M29.25 41.25V36.375H28.5V41.25H29.25Z" fill="black"/>
<path d="M28.5 41.25V40.5H23.625V41.25H28.5Z" fill="black"/>
<path d="M24.375 40.5V37.5H23.625V40.5H24.375Z" fill="black"/>
<path d="M27.75 38.25V37.5H24.375V38.25H27.75Z" fill="black"/>
<path d="M27.75 39.75V38.25H27V39.75H27.75Z" fill="black"/>
<path d="M27 39.75V39H25.5V39.75H27Z" fill="black"/>
<path d="M41.25 29.25H36.375V28.5H41.25V29.25Z" fill="black"/>
<path d="M41.25 28.5H40.5V23.625H41.25V28.5Z" fill="black"/>
<path d="M40.5 24.375H37.5V23.625H40.5V24.375Z" fill="black"/>
<path d="M38.25 27.75H37.5V24.375H38.25V27.75Z" fill="black"/>
<path d="M39.75 27.75H38.25V27H39.75V27.75Z" fill="black"/>
<path d="M39.75 27H39V25.5H39.75V27Z" fill="black"/>
<path d="M30.75 18.75V23.625H31.5V18.75H30.75Z" fill="black"/>
<path d="M31.5 18.75V19.5H36.375V18.75H31.5Z" fill="black"/>
<path d="M35.625 19.5V22.5H36.375V19.5H35.625Z" fill="black"/>
<path d="M32.25 21.75V22.5H35.625V21.75H32.25Z" fill="black"/>
<path d="M32.25 20.25V21.75H33V20.25H32.25Z" fill="black"/>
<path d="M33 20.25V21H34.5V20.25H33Z" fill="black"/>
<path d="M35.625 23.625H36.375V24.375H35.625V23.625Z" fill="black"/>
<path d="M36 23.25H36.75V24H36V23.25Z" fill="black"/>
<path d="M36.375 22.875H37.125V23.625H36.375V22.875Z" fill="black"/>
<path d="M36.75 22.5H37.5V23.25H36.75V22.5Z" fill="black"/>
<path d="M37.125 22.125H37.875V22.875H37.125V22.125Z" fill="black"/>
<path d="M37.5 21.75H38.25V22.5H37.5V21.75Z" fill="black"/>
<path d="M37.875 21.375H38.625V22.125H37.875V21.375Z" fill="black"/>
<path d="M38.25 21H39V21.75H38.25V21Z" fill="black"/>
<path d="M38.625 20.625H39.375V21.375H38.625V20.625Z" fill="black"/>
<path d="M39 15.375H39.75V21H39V15.375Z" fill="black"/>
<path d="M43.875 15.375H44.625V21H43.875V15.375Z" fill="black"/>
<path d="M39.75 15.375H43.875V16.125H39.75V15.375Z" fill="black"/>
<path d="M39.75 20.25H43.875V21H39.75V20.25Z" fill="black"/>
<path d="M38.625 15H39.375V15.75H38.625V15Z" fill="black"/>
<path d="M38.25 14.625H39V15.375H38.25V14.625Z" fill="black"/>
<path d="M37.875 14.25H38.625V15H37.875V14.25Z" fill="black"/>
<path d="M37.5 13.875H38.25V14.625H37.5V13.875Z" fill="black"/>
<path d="M45.375 21.75H46.125V22.5H45.375V21.75Z" fill="black"/>
<path d="M45 21.375H45.75V22.125H45V21.375Z" fill="black"/>
<path d="M44.625 21H45.375V21.75H44.625V21Z" fill="black"/>
<path d="M44.25 20.625H45V21.375H44.25V20.625Z" fill="black"/>
<path d="M44.25 15H45V15.75H44.25V15Z" fill="black"/>
<path d="M44.625 14.625H45.375V15.375H44.625V14.625Z" fill="black"/>
<path d="M45 14.25H45.75V15H45V14.25Z" fill="black"/>
<path d="M45.375 13.875H46.125V14.625H45.375V13.875Z" fill="black"/>
<path d="M45.75 13.5H46.5V14.25H45.75V13.5Z" fill="black"/>
<path d="M46.125 13.125H46.875V13.875H46.125V13.125Z" fill="black"/>
<path d="M46.5 12.75H47.25V13.5H46.5V12.75Z" fill="black"/>
<path d="M46.875 12.375H47.625V13.125H46.875V12.375Z" fill="black"/>
<path d="M47.25 12H48V12.75H47.25V12Z" fill="black"/>
<path d="M47.625 11.625H48.375V12.375H47.625V11.625Z" fill="black"/>
<path d="M48 11.25H48.75V12H48V11.25Z" fill="black"/>
<path d="M48.375 10.875H49.125V11.625H48.375V10.875Z" fill="black"/>
<path d="M48.75 10.5H49.5V11.25H48.75V10.5Z" fill="black"/>
<path d="M40.875 5.25H41.625V15.375H40.875V5.25Z" fill="black"/>
<path d="M47.25 0H48V9.375H47.25V0Z" fill="black"/>
<path d="M41.625 5.25H42.375V6H41.625V5.25Z" fill="black"/>
<path d="M42.375 3.75H43.125V6H42.375V3.75Z" fill="black"/>
<path d="M43.125 3.75H43.875V4.5H43.125V3.75Z" fill="black"/>
<path d="M43.875 2.25H44.625V4.5H43.875V2.25Z" fill="black"/>
<path d="M44.625 2.25H45.375V3H44.625V2.25Z" fill="black"/>
<path d="M45.375 0H46.125V3H45.375V0Z" fill="black"/>
<path d="M46.125 0H47.25V0.75H46.125V0Z" fill="black"/>
<path d="M41.625 13.875H42.375V14.625H41.625V13.875Z" fill="black"/>
<path d="M42.375 12.375H43.125V14.625H42.375V12.375Z" fill="black"/>
<path d="M43.125 12.375H43.875V13.125H43.125V12.375Z" fill="black"/>
<path d="M43.875 10.875H44.625V13.125H43.875V10.875Z" fill="black"/>
<path d="M44.625 10.875H45.375V11.625H44.625V10.875Z" fill="black"/>
<path d="M45.375 8.625H46.125V11.625H45.375V8.625Z" fill="black"/>
<path d="M46.125 8.625H47.25V9.375H46.125V8.625Z" fill="black"/>
<path d="M38.25 5.25H37.5V13.875H38.25V5.25Z" fill="black"/>
<path d="M31.875 0H31.125V9.375H31.875V0Z" fill="black"/>
<path d="M37.5 5.25H36.75V6H37.5V5.25Z" fill="black"/>
<path d="M36.75 3.75H36V6H36.75V3.75Z" fill="black"/>
<path d="M36 3.75H35.25V4.5H36V3.75Z" fill="black"/>
<path d="M35.25 2.25H34.5V4.5H35.25V2.25Z" fill="black"/>
<path d="M34.5 2.25H33.75V3H34.5V2.25Z" fill="black"/>
<path d="M33.75 0H33V3H33.75V0Z" fill="black"/>
<path d="M33 0H31.875V0.75H33V0Z" fill="black"/>
<path d="M37.5 13.875H36.75V14.625H37.5V13.875Z" fill="black"/>
<path d="M36.75 12.375H36V14.625H36.75V12.375Z" fill="black"/>
<path d="M36 12.375H35.25V13.125H36V12.375Z" fill="black"/>
<path d="M35.25 10.875H34.5V13.125H35.25V10.875Z" fill="black"/>
<path d="M34.5 10.875H33.75V11.625H34.5V10.875Z" fill="black"/>
<path d="M33.75 8.625H33V11.625H33.75V8.625Z" fill="black"/>
<path d="M33 8.625H31.875V9.375H33V8.625Z" fill="black"/>
<path d="M54.75 21.75V22.5H46.125V21.75H54.75Z" fill="black"/>
<path d="M60 28.125V28.875H50.625V28.125H60Z" fill="black"/>
<path d="M54.75 22.5V23.25H54V22.5H54.75Z" fill="black"/>
<path d="M56.25 23.25V24H54V23.25H56.25Z" fill="black"/>
<path d="M56.25 24V24.75H55.5V24H56.25Z" fill="black"/>
<path d="M57.75 24.75V25.5H55.5V24.75H57.75Z" fill="black"/>
<path d="M57.75 25.5V26.25H57V25.5H57.75Z" fill="black"/>
<path d="M60 26.25V27H57V26.25H60Z" fill="black"/>
<path d="M60 27V28.125H59.25V27H60Z" fill="black"/>
<path d="M46.125 22.5V23.25H45.375V22.5H46.125Z" fill="black"/>
<path d="M47.625 23.25V24H45.375V23.25H47.625Z" fill="black"/>
<path d="M47.625 24V24.75H46.875V24H47.625Z" fill="black"/>
<path d="M49.125 24.75V25.5H46.875V24.75H49.125Z" fill="black"/>
<path d="M49.125 25.5V26.25H48.375V25.5H49.125Z" fill="black"/>
<path d="M51.375 26.25V27H48.375V26.25H51.375Z" fill="black"/>
<path d="M51.375 27V28.125H50.625V27H51.375Z" fill="black"/>
<path d="M54 17.625H54.75V18.375H54V17.625Z" fill="black"/>
<path d="M55.5 16.125H56.25V16.875H55.5V16.125Z" fill="black"/>
<path d="M57 14.625H57.75V15.375H57V14.625Z" fill="black"/>
<path d="M59.25 12.75H60V13.875H59.25V12.75Z" fill="black"/>
<path d="M55.5 15.375H57.75V16.125H55.5V15.375Z" fill="black"/>
<path d="M57 13.875H60V14.625H57V13.875Z" fill="black"/>
<path d="M54 16.875H56.25V17.625H54V16.875Z" fill="black"/>
<path d="M45.375 17.625H46.125V18.375H45.375V17.625Z" fill="black"/>
<path d="M46.875 16.125H47.625V16.875H46.875V16.125Z" fill="black"/>
<path d="M48.375 14.625H49.125V15.375H48.375V14.625Z" fill="black"/>
<path d="M50.625 12.75H51.375V13.875H50.625V12.75Z" fill="black"/>
<path d="M46.875 15.375H49.125V16.125H46.875V15.375Z" fill="black"/>
<path d="M48.375 13.875H51.375V14.625H48.375V13.875Z" fill="black"/>
<path d="M45.375 16.875H47.625V17.625H45.375V16.875Z" fill="black"/>
<path d="M50.625 12H60V12.75H50.625V12Z" fill="black"/>
<path d="M44.625 18.375H54.75V19.125H44.625V18.375Z" fill="black"/>
<path d="M49.125 5.25H49.875V10.875H49.125V5.25Z" fill="black"/>
<path d="M54 5.25H54.75V10.875H54V5.25Z" fill="black"/>
<path d="M49.875 5.25H54V6H49.875V5.25Z" fill="black"/>
<path d="M49.875 10.125H54V10.875H49.875V10.125Z" fill="black"/>
<path d="M50.625 1.875H51.375V5.25H50.625V1.875Z" fill="black"/>
<path d="M52.125 1.875H52.875V4.125H52.125V1.875Z" fill="black"/>
<path d="M51.375 1.875H52.125V2.625H51.375V1.875Z" fill="black"/>
<path d="M54 1.875H54.75V4.125H54V1.875Z" fill="black"/>
<path d="M55.5 1.875H56.25V4.125H55.5V1.875Z" fill="black"/>
<path d="M54.75 1.875H55.5V2.625H54.75V1.875Z" fill="black"/>
<path d="M58.125 9.375V8.625H54.75V9.375H58.125Z" fill="black"/>
<path d="M58.125 7.875V7.125H55.875V7.875H58.125Z" fill="black"/>
<path d="M58.125 8.625V7.875H57.375V8.625H58.125Z" fill="black"/>
<path d="M58.125 6V5.25H55.875V6H58.125Z" fill="black"/>
<path d="M58.125 4.5V3.75H55.875V4.5H58.125Z" fill="black"/>
<path d="M58.125 5.25V4.5H57.375V5.25H58.125Z" fill="black"/>
<path d="M54.375 4.875H55.125V5.625H54.375V4.875Z" fill="black"/>
<path d="M54.75 4.5H55.5V5.25H54.75V4.5Z" fill="black"/>
<path d="M55.125 4.125H55.875V4.875H55.125V4.125Z" fill="black"/>
<path d="M24.375 36.375H23.625V35.625H24.375V36.375Z" fill="black"/>
<path d="M24 36.75H23.25V36H24V36.75Z" fill="black"/>
<path d="M23.625 37.125H22.875V36.375H23.625V37.125Z" fill="black"/>
<path d="M23.25 37.5H22.5V36.75H23.25V37.5Z" fill="black"/>
<path d="M22.875 37.875H22.125V37.125H22.875V37.875Z" fill="black"/>
<path d="M22.5 38.25H21.75V37.5H22.5V38.25Z" fill="black"/>
<path d="M22.125 38.625H21.375V37.875H22.125V38.625Z" fill="black"/>
<path d="M21.75 39H21V38.25H21.75V39Z" fill="black"/>
<path d="M21.375 39.375H20.625V38.625H21.375V39.375Z" fill="black"/>
<path d="M21 44.625H20.25V39H21V44.625Z" fill="black"/>
<path d="M16.125 44.625H15.375V39H16.125V44.625Z" fill="black"/>
<path d="M20.25 44.625H16.125V43.875H20.25V44.625Z" fill="black"/>
<path d="M20.25 39.75H16.125V39H20.25V39.75Z" fill="black"/>
<path d="M21.375 45H20.625V44.25H21.375V45Z" fill="black"/>
<path d="M21.75 45.375H21V44.625H21.75V45.375Z" fill="black"/>
<path d="M22.125 45.75H21.375V45H22.125V45.75Z" fill="black"/>
<path d="M22.5 46.125H21.75V45.375H22.5V46.125Z" fill="black"/>
<path d="M14.625 38.25H13.875V37.5H14.625V38.25Z" fill="black"/>
<path d="M15 38.625H14.25V37.875H15V38.625Z" fill="black"/>
<path d="M15.375 39H14.625V38.25H15.375V39Z" fill="black"/>
<path d="M15.75 39.375H15V38.625H15.75V39.375Z" fill="black"/>
<path d="M15.75 45H15V44.25H15.75V45Z" fill="black"/>
<path d="M15.375 45.375H14.625V44.625H15.375V45.375Z" fill="black"/>
<path d="M15 45.75H14.25V45H15V45.75Z" fill="black"/>
<path d="M14.625 46.125H13.875V45.375H14.625V46.125Z" fill="black"/>
<path d="M14.25 46.5H13.5V45.75H14.25V46.5Z" fill="black"/>
<path d="M13.875 46.875H13.125V46.125H13.875V46.875Z" fill="black"/>
<path d="M13.5 47.25H12.75V46.5H13.5V47.25Z" fill="black"/>
<path d="M13.125 47.625H12.375V46.875H13.125V47.625Z" fill="black"/>
<path d="M12.75 48H12V47.25H12.75V48Z" fill="black"/>
<path d="M12.375 48.375H11.625V47.625H12.375V48.375Z" fill="black"/>
<path d="M12 48.75H11.25V48H12V48.75Z" fill="black"/>
<path d="M11.625 49.125H10.875V48.375H11.625V49.125Z" fill="black"/>
<path d="M11.25 49.5H10.5V48.75H11.25V49.5Z" fill="black"/>
<path d="M19.125 54.75H18.375V44.625H19.125V54.75Z" fill="black"/>
<path d="M12.75 60H12V50.625H12.75V60Z" fill="black"/>
<path d="M18.375 54.75H17.625V54H18.375V54.75Z" fill="black"/>
<path d="M17.625 56.25H16.875V54H17.625V56.25Z" fill="black"/>
<path d="M16.875 56.25H16.125V55.5H16.875V56.25Z" fill="black"/>
<path d="M16.125 57.75H15.375V55.5H16.125V57.75Z" fill="black"/>
<path d="M15.375 57.75H14.625V57H15.375V57.75Z" fill="black"/>
<path d="M14.625 60H13.875V57H14.625V60Z" fill="black"/>
<path d="M13.875 60H12.75V59.25H13.875V60Z" fill="black"/>
<path d="M18.375 46.125H17.625V45.375H18.375V46.125Z" fill="black"/>
<path d="M17.625 47.625H16.875V45.375H17.625V47.625Z" fill="black"/>
<path d="M16.875 47.625H16.125V46.875H16.875V47.625Z" fill="black"/>
<path d="M16.125 49.125H15.375V46.875H16.125V49.125Z" fill="black"/>
<path d="M15.375 49.125H14.625V48.375H15.375V49.125Z" fill="black"/>
<path d="M14.625 51.375H13.875V48.375H14.625V51.375Z" fill="black"/>
<path d="M13.875 51.375H12.75V50.625H13.875V51.375Z" fill="black"/>
<path d="M21.75 54.75H22.5V46.125H21.75V54.75Z" fill="black"/>
<path d="M28.125 60H28.875V50.625H28.125V60Z" fill="black"/>
<path d="M22.5 54.75H23.25V54H22.5V54.75Z" fill="black"/>
<path d="M23.25 56.25H24V54H23.25V56.25Z" fill="black"/>
<path d="M24 56.25H24.75V55.5H24V56.25Z" fill="black"/>
<path d="M24.75 57.75H25.5V55.5H24.75V57.75Z" fill="black"/>
<path d="M25.5 57.75H26.25V57H25.5V57.75Z" fill="black"/>
<path d="M26.25 60H27V57H26.25V60Z" fill="black"/>
<path d="M27 60H28.125V59.25H27V60Z" fill="black"/>
<path d="M22.5 46.125H23.25V45.375H22.5V46.125Z" fill="black"/>
<path d="M23.25 47.625H24V45.375H23.25V47.625Z" fill="black"/>
<path d="M24 47.625H24.75V46.875H24V47.625Z" fill="black"/>
<path d="M24.75 49.125H25.5V46.875H24.75V49.125Z" fill="black"/>
<path d="M25.5 49.125H26.25V48.375H25.5V49.125Z" fill="black"/>
<path d="M26.25 51.375H27V48.375H26.25V51.375Z" fill="black"/>
<path d="M27 51.375H28.125V50.625H27V51.375Z" fill="black"/>
<path d="M5.25 38.25V37.5H13.875V38.25H5.25Z" fill="black"/>
<path d="M0 31.875V31.125H9.375V31.875H0Z" fill="black"/>
<path d="M5.25 37.5V36.75H6V37.5H5.25Z" fill="black"/>
<path d="M3.75 36.75V36H6V36.75H3.75Z" fill="black"/>
<path d="M3.75 36V35.25H4.5V36H3.75Z" fill="black"/>
<path d="M2.25 35.25V34.5H4.5V35.25H2.25Z" fill="black"/>
<path d="M2.25 34.5V33.75H3V34.5H2.25Z" fill="black"/>
<path d="M0 33.75V33H3V33.75H0Z" fill="black"/>
<path d="M0 33V31.875H0.75V33H0Z" fill="black"/>
<path d="M13.875 37.5V36.75H14.625V37.5H13.875Z" fill="black"/>
<path d="M12.375 36.75V36H14.625V36.75H12.375Z" fill="black"/>
<path d="M12.375 36V35.25H13.125V36H12.375Z" fill="black"/>
<path d="M10.875 35.25V34.5H13.125V35.25H10.875Z" fill="black"/>
<path d="M10.875 34.5V33.75H11.625V34.5H10.875Z" fill="black"/>
<path d="M8.625 33.75V33H11.625V33.75H8.625Z" fill="black"/>
<path d="M8.625 33V31.875H9.375V33H8.625Z" fill="black"/>
<path d="M6 42.375H5.25V41.625H6V42.375Z" fill="black"/>
<path d="M4.5 43.875H3.75V43.125H4.5V43.875Z" fill="black"/>
<path d="M3 45.375H2.25V44.625H3V45.375Z" fill="black"/>
<path d="M0.75 47.25H0V46.125H0.75V47.25Z" fill="black"/>
<path d="M4.5 44.625H2.25V43.875H4.5V44.625Z" fill="black"/>
<path d="M3 46.125H0V45.375H3V46.125Z" fill="black"/>
<path d="M6 43.125H3.75V42.375H6V43.125Z" fill="black"/>
<path d="M14.625 42.375H13.875V41.625H14.625V42.375Z" fill="black"/>
<path d="M13.125 43.875H12.375V43.125H13.125V43.875Z" fill="black"/>
<path d="M11.625 45.375H10.875V44.625H11.625V45.375Z" fill="black"/>
<path d="M9.375 47.25H8.625V46.125H9.375V47.25Z" fill="black"/>
<path d="M13.125 44.625H10.875V43.875H13.125V44.625Z" fill="black"/>
<path d="M11.625 46.125H8.625V45.375H11.625V46.125Z" fill="black"/>
<path d="M14.625 43.125H12.375V42.375H14.625V43.125Z" fill="black"/>
<path d="M9.375 48H0V47.25H9.375V48Z" fill="black"/>
<path d="M15.375 41.625H5.25V40.875H15.375V41.625Z" fill="black"/>
<path d="M10.875 54.75H10.125V49.125H10.875V54.75Z" fill="black"/>
<path d="M6 54.75H5.25V49.125H6V54.75Z" fill="black"/>
<path d="M10.125 54.75H6V54H10.125V54.75Z" fill="black"/>
<path d="M10.125 49.875H6V49.125H10.125V49.875Z" fill="black"/>
<path d="M9.375 58.125H8.625V54.75H9.375V58.125Z" fill="black"/>
<path d="M7.875 58.125H7.125V55.875H7.875V58.125Z" fill="black"/>
<path d="M8.625 58.125H7.875V57.375H8.625V58.125Z" fill="black"/>
<path d="M6 58.125H5.25V55.875H6V58.125Z" fill="black"/>
<path d="M4.5 58.125H3.75V55.875H4.5V58.125Z" fill="black"/>
<path d="M5.25 58.125H4.5V57.375H5.25V58.125Z" fill="black"/>
<path d="M1.875 50.625V51.375H5.25V50.625H1.875Z" fill="black"/>
<path d="M1.875 52.125V52.875H4.125V52.125H1.875Z" fill="black"/>
<path d="M1.875 51.375V52.125H2.625V51.375H1.875Z" fill="black"/>
<path d="M1.875 54V54.75H4.125V54H1.875Z" fill="black"/>
<path d="M1.875 55.5V56.25H4.125V55.5H1.875Z" fill="black"/>
<path d="M1.875 54.75V55.5H2.625V54.75H1.875Z" fill="black"/>
<path d="M5.625 55.125H4.875V54.375H5.625V55.125Z" fill="black"/>
<path d="M5.25 55.5H4.5V54.75H5.25V55.5Z" fill="black"/>
<path d="M4.875 55.875H4.125V55.125H4.875V55.875Z" fill="black"/>
<path d="M45.75 45.75H47.25V47.25H45.75V45.75Z" fill="#EC1F09"/>
<path d="M29.25 29.25H30.75V30.75H29.25V29.25Z" fill="#EC1F09"/>
<path d="M34.125 42.75H36V43.5H34.125V42.75Z" fill="#EC1F09"/>
<path d="M34.125 49.5H36V50.25H34.125V49.5Z" fill="#EC1F09"/>
<path d="M57 42.75H58.875V43.5H57V42.75Z" fill="#EC1F09"/>
<path d="M57 49.5H58.875V50.25H57V49.5Z" fill="#EC1F09"/>
<path d="M42.75 58.875V57H43.5V58.875H42.75Z" fill="#EC1F09"/>
<path d="M49.5 58.875V57H50.25V58.875H49.5Z" fill="#EC1F09"/>
<path d="M42.75 36V34.125H43.5V36H42.75Z" fill="#EC1F09"/>
<path d="M49.5 36V34.125H50.25V36H49.5Z" fill="#EC1F09"/>
<path d="M36 40.875H40.5V45.375H36V40.875Z" fill="#EC1F09"/>
<path d="M52.5 40.875H57V45.375H52.5V40.875Z" fill="#EC1F09"/>
<path d="M36 47.625H40.5V52.125H36V47.625Z" fill="#EC1F09"/>
<path d="M52.5 47.625H57V52.125H52.5V47.625Z" fill="#EC1F09"/>
<path d="M40.875 57V52.5H45.375V57H40.875Z" fill="#EC1F09"/>
<path d="M40.875 40.5V36H45.375V40.5H40.875Z" fill="#EC1F09"/>
<path d="M47.625 57V52.5H52.125V57H47.625Z" fill="#EC1F09"/>
<path d="M47.625 40.5V36H52.125V40.5H47.625Z" fill="#EC1F09"/>
<path d="M39.375 45.375H40.5V47.625H39.375V45.375Z" fill="#EC1F09"/>
<path d="M52.5 45.375H53.625V47.625H52.5V45.375Z" fill="#EC1F09"/>
<path d="M45.375 53.625V52.5H47.625V53.625H45.375Z" fill="#EC1F09"/>
<path d="M45.375 40.5V39.375H47.625V40.5H45.375Z" fill="#EC1F09"/>
<path d="M40.125 40.125H40.875V40.875H40.125V40.125Z" fill="#EC1F09"/>
<path d="M40.125 52.125H40.875V52.875H40.125V52.125Z" fill="#EC1F09"/>
<path d="M52.125 52.125H52.875V52.875H52.125V52.125Z" fill="#EC1F09"/>
<path d="M52.125 40.125H52.875V40.875H52.125V40.125Z" fill="#EC1F09"/>
<path d="M4.125 2.625H5.25V5.25H4.125V2.625Z" fill="#EC1F09"/>
<path d="M2.625 4.125H4.125V5.25H2.625V4.125Z" fill="#EC1F09"/>
<path d="M3.375 3.375H4.125V4.125H3.375V3.375Z" fill="#EC1F09"/>
<path d="M23.625 4.125V5.25H21V4.125H23.625Z" fill="#EC1F09"/>
<path d="M22.125 2.625V4.125H21V2.625H22.125Z" fill="#EC1F09"/>
<path d="M22.875 3.375V4.125H22.125V3.375H22.875Z" fill="#EC1F09"/>
<path d="M22.125 23.625H21V21H22.125V23.625Z" fill="#EC1F09"/>
<path d="M23.625 22.125H22.125V21H23.625V22.125Z" fill="#EC1F09"/>
<path d="M22.875 22.875H22.125V22.125H22.875V22.875Z" fill="#EC1F09"/>
<path d="M2.625 22.125V21H5.25V22.125H2.625Z" fill="#EC1F09"/>
<path d="M4.125 23.625V22.125H5.25V23.625H4.125Z" fill="#EC1F09"/>
<path d="M3.375 22.875V22.125H4.125V22.875H3.375Z" fill="#EC1F09"/>
<path d="M37.5 36H38.625V38.625H37.5V36Z" fill="#EC1F09"/>
<path d="M36 37.5H37.5V38.625H36V37.5Z" fill="#EC1F09"/>
<path d="M36.75 36.75H37.5V37.5H36.75V36.75Z" fill="#EC1F09"/>
<path d="M57 37.5V38.625H54.375V37.5H57Z" fill="#EC1F09"/>
<path d="M55.5 36V37.5H54.375V36H55.5Z" fill="#EC1F09"/>
<path d="M56.25 36.75V37.5H55.5V36.75H56.25Z" fill="#EC1F09"/>
<path d="M55.5 57H54.375V54.375H55.5V57Z" fill="#EC1F09"/>
<path d="M57 55.5H55.5V54.375H57V55.5Z" fill="#EC1F09"/>
<path d="M56.25 56.25H55.5V55.5H56.25V56.25Z" fill="#EC1F09"/>
<path d="M36 55.5V54.375H38.625V55.5H36Z" fill="#EC1F09"/>
<path d="M37.5 57V55.5H38.625V57H37.5Z" fill="#EC1F09"/>
<path d="M36.75 56.25V55.5H37.5V56.25H36.75Z" fill="#EC1F09"/>
<path d="M12.375 12.375H13.875V13.875H12.375V12.375Z" fill="#EC1F09"/>
<path d="M0.75 9.375H2.625V10.125H0.75V9.375Z" fill="#EC1F09"/>
<path d="M0.75 16.125H2.625V16.875H0.75V16.125Z" fill="#EC1F09"/>
<path d="M23.625 9.375H25.5V10.125H23.625V9.375Z" fill="#EC1F09"/>
<path d="M23.625 16.125H25.5V16.875H23.625V16.125Z" fill="#EC1F09"/>
<path d="M9.375 25.5V23.625H10.125V25.5H9.375Z" fill="#EC1F09"/>
<path d="M16.125 25.5V23.625H16.875V25.5H16.125Z" fill="#EC1F09"/>
<path d="M9.375 2.625V0.75H10.125V2.625H9.375Z" fill="#EC1F09"/>
<path d="M16.125 2.625V0.75H16.875V2.625H16.125Z" fill="#EC1F09"/>
<path d="M2.625 7.5H7.125V12H2.625V7.5Z" fill="#EC1F09"/>
<path d="M19.125 7.5H23.625V12H19.125V7.5Z" fill="#EC1F09"/>
<path d="M2.625 14.25H7.125V18.75H2.625V14.25Z" fill="#EC1F09"/>
<path d="M19.125 14.25H23.625V18.75H19.125V14.25Z" fill="#EC1F09"/>
<path d="M7.5 23.625V19.125H12V23.625H7.5Z" fill="#EC1F09"/>
<path d="M7.5 7.125V2.625H12V7.125H7.5Z" fill="#EC1F09"/>
<path d="M14.25 23.625V19.125H18.75V23.625H14.25Z" fill="#EC1F09"/>
<path d="M14.25 7.125V2.625H18.75V7.125H14.25Z" fill="#EC1F09"/>
<path d="M6 12H7.125V14.25H6V12Z" fill="#EC1F09"/>
<path d="M19.125 12H20.25V14.25H19.125V12Z" fill="#EC1F09"/>
<path d="M12 20.25V19.125H14.25V20.25H12Z" fill="#EC1F09"/>
<path d="M12 7.125V6H14.25V7.125H12Z" fill="#EC1F09"/>
<path d="M6.75 6.75H7.5V7.5H6.75V6.75Z" fill="#EC1F09"/>
<path d="M6.75 18.75H7.5V19.5H6.75V18.75Z" fill="#EC1F09"/>
<path d="M18.75 18.75H19.5V19.5H18.75V18.75Z" fill="#EC1F09"/>
<path d="M18.75 6.75H19.5V7.5H18.75V6.75Z" fill="#EC1F09"/>
<path d="M39.75 16.125H43.875V20.25H39.75V16.125Z" fill="#EC1F09"/>
<path d="M49.875 6H54V10.125H49.875V6Z" fill="#EC1F09"/>
<path d="M20.25 43.875H16.125V39.75H20.25V43.875Z" fill="#EC1F09"/>
<path d="M10.125 54H6V49.875H10.125V54Z" fill="#EC1F09"/>
<path d="M47.25 0.75H46.125V8.625H47.25V0.75Z" fill="#EC1F09"/>
<path d="M46.125 3H44.625V4.5H46.125V3Z" fill="#EC1F09"/>
<path d="M43.125 6H41.625V12.375H43.125V6Z" fill="#EC1F09"/>
<path d="M42.375 12.375H41.625V13.875H42.375V12.375Z" fill="#EC1F09"/>
<path d="M43.875 10.875H43.125V12.375H43.875V10.875Z" fill="#EC1F09"/>
<path d="M46.125 4.5H45.375V8.625H46.125V4.5Z" fill="#EC1F09"/>
<path d="M45.375 4.5H43.125V10.875H45.375V4.5Z" fill="#EC1F09"/>
<path d="M59.25 12.75V13.875H51.375V12.75H59.25Z" fill="#EC1F09"/>
<path d="M57 13.875V15.375H55.5V13.875H57Z" fill="#EC1F09"/>
<path d="M54 16.875V18.375H47.625V16.875H54Z" fill="#EC1F09"/>
<path d="M47.625 17.625V18.375H46.125V17.625H47.625Z" fill="#EC1F09"/>
<path d="M49.125 16.125V16.875H47.625V16.125H49.125Z" fill="#EC1F09"/>
<path d="M55.5 13.875V14.625H51.375V13.875H55.5Z" fill="#EC1F09"/>
<path d="M55.5 14.625V16.875H49.125V14.625H55.5Z" fill="#EC1F09"/>
<path d="M12.75 59.25H13.875V51.375H12.75V59.25Z" fill="#EC1F09"/>
<path d="M13.875 57H15.375V55.5H13.875V57Z" fill="#EC1F09"/>
<path d="M16.875 54H18.375V47.625H16.875V54Z" fill="#EC1F09"/>
<path d="M17.625 47.625H18.375V46.125H17.625V47.625Z" fill="#EC1F09"/>
<path d="M16.125 49.125H16.875V47.625H16.125V49.125Z" fill="#EC1F09"/>
<path d="M13.875 55.5H14.625V51.375H13.875V55.5Z" fill="#EC1F09"/>
<path d="M14.625 55.5H16.875V49.125H14.625V55.5Z" fill="#EC1F09"/>
<path d="M0.75 47.25V46.125H8.625V47.25H0.75Z" fill="#EC1F09"/>
<path d="M3 46.125V44.625H4.5V46.125H3Z" fill="#EC1F09"/>
<path d="M6 43.125V41.625H12.375V43.125H6Z" fill="#EC1F09"/>
<path d="M12.375 42.375V41.625H13.875V42.375H12.375Z" fill="#EC1F09"/>
<path d="M10.875 43.875V43.125H12.375V43.875H10.875Z" fill="#EC1F09"/>
<path d="M4.5 46.125V45.375H8.625V46.125H4.5Z" fill="#EC1F09"/>
<path d="M4.5 45.375V43.125H10.875V45.375H4.5Z" fill="#EC1F09"/>
<path d="M31.875 0.75H33V8.625H31.875V0.75Z" fill="#0A7138"/>
<path d="M33 3H34.5V4.5H33V3Z" fill="#0A7138"/>
<path d="M36 6H37.5V12.375H36V6Z" fill="#0A7138"/>
<path d="M36.75 12.375H37.5V13.875H36.75V12.375Z" fill="#0A7138"/>
<path d="M35.25 10.875H36V12.375H35.25V10.875Z" fill="#0A7138"/>
<path d="M33 4.5H33.75V8.625H33V4.5Z" fill="#0A7138"/>
<path d="M33.75 4.5H36V10.875H33.75V4.5Z" fill="#0A7138"/>
<path d="M59.25 28.125V27H51.375V28.125H59.25Z" fill="#0A7138"/>
<path d="M57 27V25.5H55.5V27H57Z" fill="#0A7138"/>
<path d="M54 24V22.5H47.625V24H54Z" fill="#0A7138"/>
<path d="M47.625 23.25V22.5H46.125V23.25H47.625Z" fill="#0A7138"/>
<path d="M49.125 24.75V24H47.625V24.75H49.125Z" fill="#0A7138"/>
<path d="M55.5 27V26.25H51.375V27H55.5Z" fill="#0A7138"/>
<path d="M55.5 26.25V24H49.125V26.25H55.5Z" fill="#0A7138"/>
<path d="M28.125 59.25H27V51.375H28.125V59.25Z" fill="#0A7138"/>
<path d="M27 57H25.5V55.5H27V57Z" fill="#0A7138"/>
<path d="M24 54H22.5V47.625H24V54Z" fill="#0A7138"/>
<path d="M23.25 47.625H22.5V46.125H23.25V47.625Z" fill="#0A7138"/>
<path d="M24.75 49.125H24V47.625H24.75V49.125Z" fill="#0A7138"/>
<path d="M27 55.5H26.25V51.375H27V55.5Z" fill="#0A7138"/>
<path d="M26.25 55.5H24V49.125H26.25V55.5Z" fill="#0A7138"/>
<path d="M0.75 31.875V33H8.625V31.875H0.75Z" fill="#0A7138"/>
<path d="M3 33V34.5H4.5V33H3Z" fill="#0A7138"/>
<path d="M6 36V37.5H12.375V36H6Z" fill="#0A7138"/>
<path d="M12.375 36.75V37.5H13.875V36.75H12.375Z" fill="#0A7138"/>
<path d="M10.875 35.25V36H12.375V35.25H10.875Z" fill="#0A7138"/>
<path d="M4.5 33V33.75H8.625V33H4.5Z" fill="#0A7138"/>
<path d="M4.5 33.75V36H10.875V33.75H4.5Z" fill="#0A7138"/>
</g>
<defs>
<clipPath id="clip0_819_4169">
<rect width="60" height="60" fill="white"/>
</clipPath>
</defs>
</svg>
