<svg version="1.2" xmlns="http://www.w3.org/2000/svg" viewBox="0 0 40 40" width="40" height="40">
    <path fill="#F8FAFC" fill-rule="evenodd" clip-rule="evenodd" d="M19.5556 0.333337L20 0.555559L20.4444 0.333337C22.1111 -0.444441 24.2222 0.222226 25.1111 2C25.4444 2.55556 25.4444 2.66667 25.4444 3.55556C25.4444 4.44445 25.4444 4.55556 25.1111 5.11111C24.8889 5.55556 24.6667 5.88889 22.7778 7.66667C21 9.44445 20.6667 9.77778 20.4444 9.88889C20 9.96297 19.5556 9.85186 19.1111 9.55556L18.6667 9.33334V10.6667C18.5556 12.5556 18.3333 13.4444 17.5556 14.4444L17.2222 14.8889L17.1111 16.4444C17.1111 18.2222 17 18.8889 16.4444 20C16.1111 20.6667 15.3333 21.5556 14.7778 22C14.5556 22.1111 14.5556 22.1111 14.5556 22.6667V23.3333H20.1111V20.4444C20.1111 18.7778 20.1111 17.1111 20.1111 16.6667C20.4444 14 21.8889 11.6667 24.2222 10.2222C24.8889 9.88889 25.2222 9.77778 25.5556 10.1111C25.7778 10.3333 25.7778 10.4444 25.7778 10.6667C25.7778 11 25.6667 11.2222 25.1111 11.5556C23.6667 12.3333 22.4444 13.8889 22 15.5556C21.6667 16.4444 21.6667 17.3333 21.6667 20.5556V23.5556L22 23.7778C22.2222 23.8889 22.5556 24.1111 22.7778 24.2222L23.1111 24.5556H25.5556V23.4444L25 22.8889C24.3333 22.2222 24 21.6667 23.6667 20.8889C23.4444 20.3333 23.4444 20.2222 23.4444 18.4444V16.5556L23.8889 16.1111H25.4444C27.2222 16.1111 27.5556 16 28.1111 15.5556C28.4815 15.2593 28.7037 14.8148 28.7778 14.2222C28.8889 13.6667 29 13.4444 29.3333 13.3333C29.7037 13.2593 30 13.3704 30.2222 13.6667C30.3333 13.8889 30.4444 14 30.3333 14.4444C30.3333 14.6667 30.2222 15 30.2222 15.2222C30.1111 15.4444 30.1111 15.5556 30.3333 15.6667C30.6667 16 31 16.1111 32.1111 16.1111C33.1111 16.1111 33.2222 16.1111 33.4444 16.5556C33.5556 16.7778 33.5556 19.5556 33.4444 20.2222C33.2222 21.3333 32.5556 22.4444 31.7778 23.1111L31.4444 23.3333V23.8889V24.5556H32.4444C33.3333 24.5556 34.4444 24.6667 35 24.7778H35.2222V16.1111L35 15.4444C34.4444 13.7778 33.3333 12.4444 32 11.6667C31.3333 11.3333 31.2222 11.1111 31.1111 10.8889C31 10.3333 31.4444 9.88889 31.8889 9.88889C32.2222 9.88889 33.1111 10.4444 33.8889 11.1111C35.2222 12.2222 36.2222 13.8889 36.6667 15.7778C36.7778 16.4444 36.7778 16.7778 36.7778 21V25.4444L37.3333 25.8889C38.5185 26.7778 39.3333 27.963 39.7778 29.4444C39.8889 29.8889 40 30.4444 40 33.2222C40 36.7778 40 37 39.5556 37.8889C39.3333 38.4444 38.4444 39.3333 37.8889 39.5556C36.8889 40 38.1111 40 20 40C1.88889 40 3.11111 40 2.11111 39.5556C1.22222 39.1111 0.333333 38 0.111111 36.8889C0 36.6667 0 35.1111 0 32.5556C0 28.2222 0 27.8889 0.444444 26.8889C1 25.6667 2 24.5556 3.22222 24C4.33333 23.4444 4.66667 23.3333 6.66667 23.3333L8.55556 23.2222V22.6667C8.55556 22.1111 8.55556 22.1111 8.22222 22C7.66667 21.5556 6.88889 20.6667 6.55556 20C6 18.8889 5.88889 18.5556 5.88889 15.5556C5.88889 12.5556 6 12.3333 6.44445 11.2222C7.11111 10 8.33333 9 9.77778 8.55556C10.2222 8.44445 10.7778 8.44445 14 8.33334H17.7778L16.4444 7C15 5.55556 14.6667 5.11111 14.5556 4.11111C14.2222 2.33334 15.3333 0.555559 17.1111 0.111114C17.9259 -0.111108 18.7407 -0.0370337 19.5556 0.333337ZM16.1111 3C16 3.55556 16 3.88889 16.2222 4.44445C16.3333 4.66667 17 5.33334 18.2222 6.55556L20 8.33334L21.7778 6.55556C23.7778 4.55556 23.8889 4.33334 23.8889 3.55556C23.8889 2.44445 23.2222 1.66667 22.1111 1.55556C21.6667 1.55556 21.2222 1.66667 20.6667 2C20.1111 2.44445 19.8889 2.44445 19.3333 2.11111C19.2222 1.88889 18.8889 1.77778 18.6667 1.66667C17.5556 1.33334 16.4444 1.88889 16.1111 3ZM17 9.88889H14C12.3333 9.88889 10.8889 10 10.6667 10C10.2222 10 9.44445 10.3333 9 10.6667C8.44445 11.1111 8.11111 11.4444 7.77778 12.1111C7.55556 12.6667 7.55556 12.7778 7.55556 13.7778L7.44444 14.8889H10.5556C12.3333 14.8889 13.8889 14.8889 14.1111 14.8889C14.7778 14.6667 15.5556 14.3333 16 13.7778C16.8889 12.8889 17 12.3333 17 10.8889V9.88889ZM15.5556 16C15.5556 16 15.2222 16.1111 14.8889 16.2222L14.3333 16.4444H10.8889H7.55556V17.2222C7.55556 18.5556 7.88889 19.4444 8.66667 20.2222C10.3333 21.8889 12.8889 21.8889 14.4444 20.1111C15.2222 19.3333 15.5556 18.4444 15.5556 16.8889C15.6667 16.4444 15.6667 16 15.5556 16ZM29.2222 16.8889C29.1111 16.8889 29 16.8889 28.7778 17C28 17.5556 27.6667 17.5556 26.2222 17.6667H25V18.6667C25 20.2222 25.2222 21 26.1111 21.7778C26.5556 22.2222 27 22.4444 27.6667 22.6667C28.8889 22.8889 30.1111 22.5556 31 21.5556C31.7778 20.7778 32 20.1111 32 18.5556V17.6667H31.3333C30.5556 17.5556 30 17.4444 29.5556 17.1111C29.4444 17 29.2222 16.8889 29.2222 16.8889ZM10.5556 23L10.1111 22.8889V23.6667C10.1111 24.5556 10.2222 24.8889 10.4444 25.2222C11.1111 25.8889 12.2222 25.7778 12.7778 25C12.8889 24.7778 12.8889 24.6667 13 23.7778V22.8889L12.5556 23C12.3333 23 11.8889 23 11.5556 23C11.2222 23 10.7778 23 10.5556 23ZM27.4444 24.2222L27.1111 24.1111V24.8889C27.1111 25.5556 27.1111 25.7778 27.2222 26.1111C27.5556 26.5556 27.7778 26.7778 28.4444 26.7778C28.7778 26.7778 28.8889 26.7778 29.1111 26.6667C29.6667 26.2222 29.8889 25.8889 29.8889 24.7778V24.1111L29.4444 24.2222C29.2222 24.2222 28.7778 24.2222 28.4444 24.2222C28.1111 24.2222 27.6667 24.2222 27.4444 24.2222ZM8.55556 24.8889H7C6.22222 24.8889 5.33333 24.8889 5.11111 24.8889C3.55556 25.2222 2.33333 26.3333 1.77778 27.7778C1.55556 28.3333 1.55556 28.3333 1.55556 32.4444C1.55556 36.5556 1.55556 36.6667 1.77778 37C2 37.5185 2.37037 37.9259 2.88889 38.2222L3.33333 38.4444H7.55556H11.7778V35.8889H8.66667C6 35.8889 5.44444 35.8889 5.22222 35.7778C4.77778 35.5556 4.77778 34.7778 5.22222 34.4444C5.44444 34.4444 6.22222 34.3333 9.66667 34.3333H13.8889L14.2222 33.8889C14.7778 33.1111 15.6667 32.3333 16.5556 31.8889L17 31.7778L16.4444 31.2222C15 29.5556 14.7778 27 16.2222 25.2222L16.4444 24.8889H14.5556L14.4444 25C14 26.2593 13.1852 27 12 27.2222C10.6667 27.4444 9.22222 26.5556 8.77778 25.3333L8.55556 24.8889ZM20.1111 25C19.1111 24.8889 18.5556 25.1111 17.8889 25.6667C17.1111 26.2222 16.6667 27.3333 16.7778 28.3333C16.8889 29.6667 17.6667 30.6667 18.8889 31.1111C19.5556 31.3333 20.5556 31.3333 21.3333 31C22.5556 30.4444 23.3333 28.8889 23.1111 27.5556C22.8889 26.5556 22.2222 25.6667 21.3333 25.2222C20.8889 25 20.6667 25 20.1111 25ZM25.5556 26.1111H24.8889C24.5556 26.1111 24.3333 26.1111 24.3333 26.2222C24.3333 26.2222 24.4444 26.4444 24.4444 26.7778C24.6667 27.4444 24.7778 28.6667 24.5556 29.3333C24.3333 30 23.8889 30.7778 23.4444 31.3333L23 31.7778L23.2222 31.8889C24 32.2222 25.2222 33.2222 25.7778 33.8889L26.1111 34.4444H34.5556L34.8889 34.6667C35 34.8889 35.1111 35 35.1111 35.2222C35.1111 35.3333 35 35.5556 34.8889 35.6667L34.5556 36H28.1111V38.4444H32.4444H36.6667L37.1111 38.2222C37.5556 37.9259 37.9259 37.5556 38.2222 37.1111C38.3333 36.6667 38.3333 36.5556 38.3333 33.4444V30.1111L38.1111 29.5556C37.6667 28.3333 36.7778 27.3333 35.7778 26.7778C34.7778 26.2222 34.4444 26.2222 32.7778 26.1111C31.3333 26.1111 31.3333 26.1111 31.2222 26.2222C31 27.1111 30.3333 27.7778 29.6667 28.1111C29.2222 28.3333 29.1111 28.3333 28.4444 28.3333C27.6667 28.3333 27.5556 28.3333 27.1111 28.1111C26.4444 27.7778 26 27.2222 25.6667 26.5556L25.5556 26.1111ZM17.4444 33.3333C16.8889 33.5556 16.1111 34.1111 15.7778 34.4444C15.5556 34.6667 15.5556 34.6667 15.7778 34.7778C16 34.8889 16.5556 35.4444 16.7778 35.7778C17.2222 36.4444 17.3333 37.3333 17 38L16.8889 38.4444H20C21.6667 38.4444 23 38.4444 23 38.4444C23 38.4444 23 38.2222 22.8889 38C22.5556 36.8889 23 35.6667 24 35L24.4444 34.6667L24 34.2222C23.2222 33.5556 22.2222 33.1111 21.1111 32.8889C19.7778 32.7778 18.4444 32.8889 17.4444 33.3333ZM14.1111 36H13.3333V38.4444H14.1111C14.6667 38.4444 14.8889 38.4444 15 38.2222C15.4444 38 15.5556 37.6667 15.5556 37.2222C15.5556 36.6667 15.4444 36.4444 15 36.1111C14.8889 36 14.6667 36 14.1111 36ZM26.6667 36H26C25.3333 36 25.1111 36 24.7778 36.3333C24.2222 36.8889 24.2222 37.7778 25 38.2222C25.1111 38.4444 25.3333 38.4444 25.8889 38.4444H26.6667V36ZM28.6667 9.22223C29 9.33334 29.2222 9.66667 29.2222 10C29.2222 10.7778 28 11 27.7778 10.2222C27.6667 9.88889 27.7778 9.44445 28.1111 9.22223C28.4444 9.11111 28.4444 9.11111 28.6667 9.22223Z" />
</svg>
