<svg version="1.2" xmlns="http://www.w3.org/2000/svg" viewBox="0 0 64 60" width="64" height="60">
    <path fill="#334155" fill-rule="evenodd" d="m30.6 0h2.1v2h2.1v2h-2.1v1.5l0.1 1.6 0.6 0.1c4.3 0.6 7.8 3.9 8.6 8 0.1 0.5 0.2 1.8 0.2 2.8v1.9l2.7 1.2 2.6 1.3v1.8l2.5 0.5c1.5 0.3 2.9 0.7 3.4 0.9 1 0.5 2.2 1.6 2.8 2.5 0.8 1.4 0.8 1.6 0.8 8.5v6.4l0.7 0.1c1 0.1 2.4 0.8 3.1 1.5 0.3 0.3 0.7 0.9 1 1.4l0.4 0.8v5.6l0.1 5.6h1v2h-63.3v-2h1l0.1-5.6v-5.6l0.4-0.8c0.3-0.5 0.7-1.1 1-1.4 0.7-0.7 2.1-1.4 3.1-1.5l0.7-0.1v-6.4c0-6.9 0-7.1 0.8-8.5 0.6-0.9 1.8-2 2.8-2.5 0.5-0.2 1.9-0.6 3.4-0.9l2.5-0.5v-1.8l2.6-1.3 2.7-1.2v-2.3c0.1-2.9 0.5-4.2 1.7-6 1.6-2.3 4.1-3.9 6.9-4.4l0.8-0.1 0.1-3.1h-2.1v-2h2.1zm-4.8 11.3c-0.5 0.5-1.1 1.1-1.2 1.3l-0.3 0.5h1.1c1.1 0 1.7 0.2 2.7 0.9l0.4 0.3 0.4-0.3c1-0.8 1.6-0.9 2.8-0.9 1.1 0 1.7 0.1 2.7 0.9l0.4 0.3 0.6-0.5c0.9-0.6 1.9-0.8 2.8-0.8l0.8 0.1-0.5-0.8c-1.1-1.5-3.2-2.7-5.1-3.1-2.8-0.6-5.6 0.2-7.6 2.1zm-1.3 3.9c-0.5 0.2-1 0.6-1.1 1.1-0.1 0.2-0.2 1.1-0.2 2v1.7h4.2v-1.9c0-2-0.1-2.2-0.9-2.8-0.5-0.3-1.5-0.4-2-0.1zm6.3 0c-0.5 0.2-0.9 0.6-1.1 1.1-0.1 0.2-0.2 1.1-0.2 2v1.7h4.3l-0.1-1.9c0-2-0.1-2.2-0.9-2.8-0.4-0.3-1.5-0.4-2-0.1zm6.3 0c-0.5 0.2-0.9 0.6-1.1 1.1-0.1 0.2-0.1 1.1-0.1 2v1.7h4.2v-1.9c-0.1-2-0.1-2.2-1-2.8-0.4-0.3-1.4-0.4-2-0.1zm4.8 6.8h-10.3-10.3l-1.7 0.8-1.7 0.8v6.4h1.9 1.9l0.4-0.8c0.8-1.7 2.4-3.3 4.3-4.2 1.8-0.8 2.5-0.9 5.3-0.9 2.8 0 3.4 0.1 5.2 0.9 1.9 0.9 3.5 2.5 4.3 4.2l0.4 0.8h1.9 1.9v-6.4zm-12.9 4.2c-1.2 0.3-2.6 1-3.6 1.9l-0.9 0.8 1 0.1c1 0.1 1.7 0.4 2.5 1l0.4 0.3 0.5-0.3c0.9-0.7 1.5-0.9 2.7-0.9 1.2 0 1.7 0.2 2.7 0.9l0.4 0.3 0.5-0.3c0.8-0.6 1.5-0.9 2.5-1l0.9-0.1-0.8-0.8c-1-0.9-2.4-1.6-3.7-1.9-1.1-0.2-4-0.2-5.1 0zm-13.3 0.1c-0.7 0-4.7 1-5.1 1.2-0.7 0.4-1.5 1.1-1.8 1.8-0.2 0.3-0.3 0.6-0.3 0.7 0 0 1.6 0 3.6 0h3.7v-1.9c0-1-0.1-1.8-0.1-1.8zm32 0h-0.3v3.7h3.6c2 0 3.7 0 3.7 0 0-0.3-0.7-1.3-1.1-1.7-0.7-0.7-1.4-1-3.6-1.5-1.1-0.2-2.1-0.4-2.3-0.5zm-24.1 5.5c-0.3 0.4-0.4 0.7-0.4 1.4l-0.1 0.8h4.3l-0.1-0.8c0-0.7-0.1-1-0.4-1.4-0.2-0.2-0.6-0.5-0.8-0.6-0.9-0.4-1.9-0.1-2.5 0.6zm7.1-0.6c-0.8 0.4-1.2 1.1-1.2 2.2v0.6h4.2v-0.9c-0.1-0.9-0.3-1.3-1-1.7-0.4-0.4-1.4-0.4-2-0.2zm5.3 1.1c-0.1 0.2-0.2 0.7-0.2 1.1v0.6h4.3l-0.1-0.8c0-0.7-0.1-1-0.4-1.4-0.2-0.2-0.6-0.5-0.8-0.6-1.2-0.5-2.4 0.1-2.8 1.1zm-14.9-0.3h-12.7v11h10.5v-6.4l1.1-1 1-1 0.1-1.3zm33.7 0h-12.8l0.1 1.3v1.3l1.1 1 1 1v6.4h10.6zm-14.2 4h-18.1l-1.5 1.5v8.5h3.2v-0.8c0-5.3 5.6-8.7 10.6-6.4 2.6 1.1 4.1 3.6 4.1 6.4v0.8h3.2v-8.6zm-8.7 4.1c-1.2-0.1-1.8 0-2.7 0.5l-0.7 0.3 0.4 0.2c1 0.2 1.4 0.3 2.1 0.8l0.6 0.4 0.4-0.3c0.6-0.5 1.3-0.7 2-0.9l0.7-0.2-0.9-0.4c-0.7-0.3-1.1-0.4-1.9-0.4zm-4.3 3.1c-0.9 0.4-1.3 1.1-1.3 2.2v0.6h4.2v-0.8c-0.1-1-0.3-1.4-0.9-1.8-0.5-0.3-1.5-0.4-2-0.2zm6.3 0c-0.9 0.4-1.3 1.1-1.3 2.2v0.6h4.3l-0.1-0.8c0-1-0.2-1.4-0.9-1.8-0.4-0.3-1.5-0.4-2-0.2zm-15 1.8h-6.6q-6.7 0.1-7.1 0.2c-0.7 0.2-1.8 1.3-2 1.9-0.3 1-0.9 0.9 6.3 0.9h6.4l0.5-0.4c0.6-0.5 2-1.2 2.4-1.2q0.1 0 0.1-0.7zm31.9 0h-6.6v0.7q0 0.7 0.2 0.7c0.3 0 1.6 0.6 2.3 1.1l0.7 0.5h6.3c7.1 0 6.5 0.1 6.2-0.9-0.2-0.7-1.3-1.7-2-1.9-0.4-0.1-2.4-0.2-7.1-0.2zm-7.4 3.1h-11.5c-6.5-0.1-11.8 0-12.1 0.1-0.8 0.1-1.7 0.6-2.4 1.2l-0.7 0.6h14.9 14.8l-0.5-0.5c-0.3-0.3-1-0.7-1.5-1zm-34.7 2h-5.6v8h10.5l0.1-3.2c0-3 0-3.3 0.3-4 0.2-0.4 0.3-0.8 0.3-0.8 0 0-2.5 0-5.6 0zm51.4 0h-5.6c-3.1 0-5.7 0-5.7 0 0 0 0.2 0.4 0.3 0.8 0.3 0.7 0.3 1 0.4 4v3.2h10.6zm-35.9 2h-4.2c-3.6 0-4.1 0-4.2 0.2 0 0.1-0.1 1.4-0.1 3v2.8h8.5zm12.6 0h-10.5v6h10.5zm6.3 0h-4.1v6h8.4v-2.8c0-1.6 0-2.9-0.1-3-0.1-0.2-0.6-0.2-4.2-0.2zm-32.6-18h2.1v7h-2.1zm31.6 20h2.1v2h-2.1zm-27.4-20h2.1v7h-2.1zm31.6 0h2.1v7h-2.1zm4.3 0h2.1v7h-2.1zm-45.4 18h2.1v4h-2.1zm4.2 0h2.1v4h-2.1zm42.2 0h2.1v4h-2.1zm4.2 0h2.1v4h-2.1zm-36.9 2h2.1v2h-2.1zm9.5 0h2.1v2h-2.1zm4.2 0h2.1v2h-2.1z" />
</svg>
