<svg width="64" height="60" viewBox="0 0 64 60" fill="none" xmlns="http://www.w3.org/2000/svg">
<g clip-path="url(#clip0_18_340)">
<path fill-rule="evenodd" clip-rule="evenodd" d="M30.6012 0H32.7117V2H34.8221V4H32.6985L32.738 5.525L32.7776 7.0625L33.4371 7.1625C37.7239 7.8125 41.1666 11.05 42.0239 15.225C42.1295 15.75 42.2086 16.9625 42.2218 18.0375V19.9375L44.8598 21.15L47.4847 22.375V24.2L50.0304 24.725C51.5077 25.0375 52.9058 25.4125 53.3939 25.625C54.4359 26.0875 55.6362 27.1625 56.177 28.1125C56.9684 29.525 56.9816 29.675 56.9816 36.6375V42.975L57.7071 43.0625C58.6963 43.175 60.1209 43.875 60.8068 44.575C61.1101 44.8875 61.5454 45.5125 61.7696 45.975L62.1917 46.8125L62.2313 52.4L62.2709 58H63.3129V60H0V58H1.04202L1.0816 52.4L1.12117 46.8125L1.54325 45.975C1.76748 45.5125 2.20276 44.8875 2.50613 44.575C3.19202 43.875 4.61656 43.175 5.60583 43.0625L6.33129 42.975V36.6375C6.33129 29.675 6.34448 29.525 7.13589 28.1125C7.67669 27.1625 8.87699 26.0875 9.91902 25.625C10.4071 25.4125 11.8052 25.0375 13.2957 24.725L15.8282 24.2V22.375L18.4399 21.15L21.0647 19.9375L21.1307 17.625C21.223 14.65 21.5791 13.375 22.8058 11.6C24.4018 9.2875 26.8948 7.6875 29.6779 7.2L30.5353 7.05L30.6144 4H28.4908V2H30.6012V0ZM25.8 11.3C25.2724 11.7875 24.7316 12.3875 24.5865 12.625L24.3227 13.0625H25.3779C26.4991 13.075 27.0794 13.2625 28.0687 13.9625L28.4908 14.2625L28.9261 13.9625C29.9153 13.25 30.4693 13.075 31.6564 13.075C32.8436 13.075 33.3975 13.25 34.3868 13.9625L34.7957 14.2625L35.442 13.8375C36.3126 13.2375 37.2755 12.9625 38.2383 13.025L39.0298 13.075L38.4758 12.3375C37.3546 10.825 35.3365 9.5625 33.4371 9.1875C30.6408 8.6375 27.8181 9.4125 25.8 11.3ZM24.4678 15.175C23.9798 15.3875 23.5445 15.825 23.3598 16.2875C23.2807 16.4875 23.2147 17.4 23.2147 18.325V20H27.4488L27.4092 18.1375C27.3696 16.1125 27.3037 15.9125 26.4859 15.3375C26.0374 15.025 24.9954 14.9375 24.4678 15.175ZM30.7991 15.175C30.311 15.3875 29.8758 15.825 29.6911 16.2875C29.612 16.4875 29.546 17.4 29.546 18.325V20H33.7801L33.7405 18.1375C33.7009 16.1125 33.635 15.9125 32.8172 15.3375C32.3687 15.025 31.3267 14.9375 30.7991 15.175ZM37.1304 15.175C36.6423 15.3875 36.2071 15.825 36.0224 16.2875C35.9433 16.4875 35.8773 17.4 35.8773 18.325V20H40.1114L40.0718 18.1375C40.0322 16.1125 39.9663 15.9125 39.1485 15.3375C38.7 15.025 37.658 14.9375 37.1304 15.175ZM41.9448 22L31.6301 22.0125H21.3021L19.627 22.825L17.9387 23.625V30H19.8248L21.6979 29.9875L22.0672 29.2125C22.885 27.4625 24.5206 25.9 26.4463 25C28.1742 24.1875 28.8601 24.0625 31.6564 24.0625C34.4528 24.0625 35.1387 24.1875 36.8666 25C38.7923 25.9 40.4279 27.4625 41.2457 29.2125L41.615 29.9875L43.5012 30H45.3742V23.625L41.9448 22ZM29.058 26.1875C27.8313 26.4375 26.4463 27.175 25.4571 28.1125L24.5997 28.925L25.5494 29.025C26.5255 29.125 27.2773 29.4 28.0687 29.9625L28.4908 30.2625L28.9261 29.9625C29.9153 29.25 30.4693 29.075 31.6564 29.075C32.8436 29.075 33.3975 29.25 34.3868 29.9625L34.8089 30.275L35.2442 29.9625C36.0356 29.4 36.7874 29.125 37.7635 29.025L38.7132 28.925L37.8558 28.1125C36.8402 27.1625 35.4816 26.4375 34.2021 26.1875C33.0678 25.9625 30.166 25.9625 29.058 26.1875ZM15.7359 26.2625C15.0764 26.325 11.1193 27.2875 10.6972 27.4875C9.95859 27.85 9.21994 28.575 8.8638 29.2875C8.70552 29.6125 8.57362 29.9 8.57362 29.9375C8.57362 29.975 10.2092 30 12.2009 30H15.8282V28.125C15.8282 27.0875 15.7887 26.25 15.7359 26.2625ZM47.788 26.3125L47.4847 26.25V30H51.112C53.1037 30 54.7393 29.975 54.7393 29.9375C54.7393 29.6875 54.0929 28.6625 53.6709 28.2625C52.9322 27.5375 52.3123 27.2875 50.0831 26.8C48.9752 26.5625 47.9463 26.35 47.788 26.3125ZM23.6632 31.8125C23.3598 32.2 23.2807 32.4375 23.2411 33.1375L23.1883 34H27.462L27.4092 33.1375C27.3696 32.4375 27.2905 32.2 26.9871 31.8125C26.7761 31.5625 26.4067 31.275 26.1693 31.175C25.2328 30.8 24.2831 31.05 23.6632 31.8125ZM30.7991 31.175C29.9417 31.5375 29.546 32.2375 29.546 33.325V34H33.7933L33.7405 33.125C33.6877 32.2 33.4899 31.8125 32.8172 31.3375C32.3687 31.025 31.3267 30.9375 30.7991 31.175ZM36.0224 32.2875C35.9433 32.4875 35.8773 32.95 35.8773 33.325V34H40.1245L40.0718 33.1375C40.0322 32.4375 39.9531 32.2 39.6497 31.8125C39.4387 31.5625 39.0693 31.275 38.8319 31.175C37.7107 30.725 36.4445 31.2375 36.0224 32.2875ZM21.1702 32H8.44172V43H18.9939V36.5625L20.0359 35.575L21.0911 34.5875L21.1307 33.2875L21.1702 32ZM54.8712 32H42.1426L42.1822 33.2875L42.2218 34.5875L43.277 35.575L44.319 36.5625V43H54.8712V32ZM40.6785 36H22.608L21.1043 37.45V46H24.2699V45.2125C24.2699 39.8625 29.889 36.45 34.9012 38.75C37.4733 39.925 39.0429 42.375 39.0429 45.2125V46H42.2086V37.425L40.6785 36ZM31.9466 40.05C30.7727 40 30.2187 40.1125 29.2426 40.5875L28.5567 40.9125L29.0184 41.025C29.9549 41.225 30.4166 41.4125 31.0365 41.8375L31.6828 42.2625L32.0917 41.9625C32.7117 41.5125 33.358 41.225 34.0966 41.0625L34.7561 40.9125L33.8592 40.5125C33.1469 40.1875 32.7776 40.0875 31.9466 40.05ZM27.6334 43.175C26.7761 43.5375 26.3804 44.2375 26.3804 45.325V46H30.6276L30.5748 45.125C30.5221 44.2 30.3242 43.8125 29.6515 43.3375C29.2031 43.025 28.161 42.9375 27.6334 43.175ZM33.9647 43.175C33.1074 43.5375 32.7117 44.2375 32.7117 45.325V46H36.9589L36.9061 45.125C36.8534 44.2 36.6555 43.8125 35.9828 43.3375C35.5344 43.025 34.4923 42.9375 33.9647 43.175ZM18.9939 45L12.3724 45.0125C7.94049 45.025 5.57945 45.075 5.27607 45.1625C4.62975 45.3625 3.52178 46.4375 3.32393 47.075C3.00736 48.0875 2.4138 48 9.54969 48H15.9337L16.5141 47.55C17.0681 47.1 18.5058 46.375 18.8356 46.375C18.9411 46.375 18.9939 46.15 18.9939 45.6875V45ZM50.8614 45H44.319V45.6875C44.319 46.15 44.3718 46.375 44.4905 46.375C44.8071 46.375 46.1129 47.025 46.7724 47.5125L47.4451 48H53.7896C60.8991 48 60.3055 48.0875 59.989 47.075C59.7779 46.3875 58.6831 45.35 57.9577 45.15C57.562 45.0375 55.623 45 50.8614 45ZM43.4748 48.0625L31.9334 48.0375C25.4702 48.025 20.1546 48.075 19.8776 48.1375C19.0994 48.3125 18.1761 48.8125 17.4638 49.425L16.8175 49.9875L31.6564 50H46.4822L45.9678 49.4875C45.6776 49.2125 44.9917 48.775 44.4641 48.525L43.4748 48.0625ZM8.77147 50H3.16564V58H13.6914L13.7442 54.7875C13.7969 51.8375 13.8233 51.5 14.0871 50.8125C14.2454 50.4125 14.3773 50.05 14.3773 50.0375C14.3773 50.0125 11.858 50 8.77147 50ZM60.1472 50H54.5414C51.4549 50 48.9356 50.025 48.9356 50.0375C48.9356 50.0625 49.0675 50.4125 49.2258 50.825C49.4896 51.5 49.5159 51.8625 49.5687 54.775L49.6215 58H60.1472V50ZM24.2699 52H20.1282C16.4745 52 15.9733 52.025 15.9074 52.2C15.8678 52.3125 15.8282 53.6625 15.8282 55.2V58H24.2699V52ZM36.9325 52H26.3804V58H36.9325V52ZM43.1847 52H39.0429V58H47.4847V55.2C47.4847 53.6625 47.4451 52.3125 47.4055 52.2C47.3396 52.025 46.8383 52 43.1847 52ZM10.5521 34H12.6626V41H10.5521V34ZM42.2086 54H44.319V56H42.2086V54ZM14.773 34H16.8834V41H14.773V34ZM46.4295 34H48.5399V41H46.4295V34ZM50.6503 34H52.7607V41H50.6503V34ZM5.27607 52H7.3865V56H5.27607V52ZM9.49693 52H11.6074V56H9.49693V52ZM51.7055 52H53.816V56H51.7055V52ZM55.9264 52H58.0368V56H55.9264V52ZM18.9939 54H21.1043V56H18.9939V54ZM28.4908 54H30.6012V56H28.4908V54ZM32.7117 54H34.8221V56H32.7117V54Z" fill="#334155"/>
</g>
<defs>
<clipPath id="clip0_18_340">
<rect width="63.3129" height="60" fill="white"/>
</clipPath>
</defs>
</svg>
