<svg version="1.2" xmlns="http://www.w3.org/2000/svg" viewBox="0 0 64 60" width="64" height="60">
    <path fill="#334155" fill-rule="evenodd" d="m42.5 0c0.4 0 19.1 5.6 19.7 5.9 0.6 0.4 1.1 1 1.3 1.7 0.1 0.4 0.2 6.5 0.1 25v24.5l-0.3 0.5c-0.6 1.1-2 1.8-3.1 1.6-0.3 0-4.4-1.2-9.1-2.6l-8.6-2.6-10.4 3c-5.7 1.7-10.5 3-10.7 3-0.3 0-19-5.6-19.6-5.9-0.6-0.4-1.1-1.1-1.3-1.7-0.2-0.4-0.2-6.5-0.2-25l0.1-24.5 0.3-0.5c0.5-1.1 2-1.8 3.1-1.7 0.3 0.1 4.4 1.3 9.1 2.7l8.5 2.5 10.4-2.9c5.7-1.7 10.5-3 10.7-3zm-1.1 2.3c0 0.1-4.1 1.2-9 2.6-4.9 1.4-9.1 2.6-9.4 2.7l-0.5 0.1v39.2h0.7c0.6 0 0.8 0 1.1 0.3 0.3 0.3 0.4 0.8 0 1.2-0.2 0.3-0.3 0.4-1.4 0.5l-0.4 0.1v4.3c0 4.1 0 4.4 0.2 4.3 0.1 0 3.9-1.1 8.5-2.4 4.6-1.3 8.7-2.5 9.3-2.7l1-0.2v-38.3l-0.8 0.1c-0.4 0-1.1 0.2-1.5 0.2-1.1 0.3-1.5 0.3-1.8-0.3-0.5-0.8-0.1-1.3 1.3-1.6 0.6-0.1 1.4-0.3 1.9-0.3l0.9-0.1v-4.8c0-2.7 0-4.9-0.1-4.9zm2.9 0.3l-0.7-0.3v9.7l0.7 0.1c1.2 0.2 3 0.7 3.3 1.1 0.3 0.4 0.3 0.9-0.1 1.3q-0.5 0.5-1.5 0.1c-0.5-0.2-1.9-0.5-2.2-0.5-0.2 0-0.2 3.8-0.2 19.1l0.1 19.1 8.4 2.5c5.8 1.7 8.5 2.5 8.7 2.4 0.1 0 0.4-0.2 0.5-0.3 0.3-0.3 0.3-0.6 0.3-24.5 0-21-0.1-24.1-0.2-24.4-0.2-0.4 0.6-0.2-9.2-3.1-4-1.1-7.5-2.2-7.9-2.3zm-40.6 0.2c-0.5-0.1-0.8 0-1.1 0.4-0.2 0.2-0.2 2.4-0.2 24.4 0 21 0 24.1 0.2 24.4 0.2 0.4-0.5 0.2 9 3 3.7 1.1 7.3 2.2 7.8 2.3l1 0.3v-8.6l-0.3-0.1c-0.8-0.2-1-1.2-0.4-1.7 0.2-0.1 0.4-0.2 0.5-0.2 0.1 0 0.2-3.1 0.1-19.7v-19.6l-8.2-2.4c-4.5-1.4-8.3-2.5-8.4-2.5zm32.2 11.8q0.7 0.7-0.2 1.6c-0.2 0.3-0.6 0.7-0.9 1.1-0.2 0.3-0.5 0.6-0.6 0.6-0.7 0.3-1.5-0.2-1.5-0.9 0-0.4 0.8-1.6 1.6-2.2 0.6-0.6 1.1-0.7 1.6-0.2zm-3.5 5.4c0.4 0 0.8 0.3 1 0.7 0 0.2-0.2 2.4-0.4 2.8-0.2 0.5-1.3 0.6-1.7 0.1-0.4-0.5-0.1-2.8 0.3-3.3q0.3-0.3 0.8-0.3zm0.3 6.3c0.3 0.3 0.3 0.3 0.3 1.7 0 1.4 0 1.4-0.3 1.7-0.5 0.4-1 0.4-1.4 0-0.3-0.2-0.3-0.4-0.3-1.2-0.1-1.7 0-1.9 0.3-2.2 0.4-0.4 1-0.4 1.4 0zm-0.8 5.7c0.3 0 0.9 0.3 1 0.5 0.1 0.3 0.1 2.2 0 2.7-0.3 0.7-1 1-1.6 0.6-0.5-0.3-0.5-0.6-0.4-2 0.1-1.2 0.1-1.3 0.4-1.5 0.2-0.2 0.4-0.3 0.6-0.3zm0.5 6.9c-0.1 0.6-0.6 2.5-0.9 2.8-0.6 0.6-1.7 0.2-1.7-0.6 0-0.5 0.5-2.5 0.7-2.7 0.1-0.1 0.3-0.3 0.4-0.3 0.6-0.3 1.5 0.3 1.5 0.8zm-2.6 5.6c0.1 0.5-0.1 0.9-0.9 1.7-0.7 0.7-0.9 0.8-1.3 0.8-0.6 0-1.1-0.4-1.1-0.9 0-0.3 0.2-0.6 0.7-1.1 0.4-0.4 0.8-0.9 1-1 0.5-0.4 1.5-0.1 1.6 0.5zm21.6-28.3c1 1.4 1.2 2.1 0.5 2.5-0.6 0.5-1.2 0.3-1.8-0.6-0.2-0.3-0.5-0.8-0.8-1.2-0.7-0.8-0.6-1.4 0.1-1.8 0.6-0.3 1.1 0 2 1.1zm2.3 6.1c0.3 0.3 0.4 1 0.4 2.3 0 0.6 0 0.8-0.2 1-0.5 0.5-1.3 0.5-1.7-0.1-0.1-0.1-0.2-0.8-0.2-1.6-0.1-1.3-0.1-1.3 0.2-1.6 0.4-0.4 1.1-0.4 1.5 0zm0.1 6c0.3 0.3 0.3 0.3 0.3 1.7 0 1.3 0 1.4-0.3 1.7-0.4 0.4-0.9 0.4-1.4-0.1-0.4-0.3-0.4-0.3-0.4-1.6 0-1.3 0-1.3 0.4-1.7 0.5-0.4 1-0.4 1.4 0zm-0.2 5.8c0.4 0.3 0.5 0.5 0.5 1.4 0 0.9 0 0.9-0.4 1.2-0.4 0.4-1 0.4-1.4-0.1-0.2-0.2-0.3-0.4-0.3-1.1 0-0.8 0.1-0.9 0.4-1.2 0.4-0.3 0.7-0.4 1.2-0.2zm-4.5 1.9c0.1 0.1 1.1 0.9 2.1 1.9l1.9 1.7 1.8-1.8c1.9-1.8 2.3-2 2.8-1.7 0.5 0.2 0.6 0.5 0.6 0.9 0 0.4-0.1 0.6-1.8 2.2l-1.9 1.8 1.9 1.8c1.6 1.6 1.8 1.9 1.8 2.2 0 0.5-0.4 0.9-1 0.9-0.5 0-0.6-0.1-2.3-1.7l-1.9-1.8-1.9 1.8c-1.7 1.6-1.9 1.8-2.3 1.8-0.6 0-1.1-0.5-1.1-1 0-0.3 0.3-0.6 1.9-2.2l1.9-1.8-1.8-1.7c-1.2-1.1-1.9-1.9-1.9-2.1-0.1-0.4 0.1-0.9 0.5-1.1 0.2-0.1 0.5-0.1 0.7-0.1zm-33.2-23.7c0.9 1.3 1.3 2.3 1.3 3.8 0 2.4-1.1 4.8-3.2 7.3-1 1.1-2.5 2.5-2.9 2.6-0.5 0.1-0.9-0.2-2.1-1.3-2.6-2.6-4.2-5.3-4.4-8-0.3-3.2 2-6.1 5.3-6.6 2.2-0.4 4.7 0.6 6 2.2zm-8.8 2c-0.4 0.7-0.4 0.8-0.4 1.9 0 0.9 0.1 1.3 0.4 2.1 0.6 1.7 1.9 3.6 3.3 4.9l0.5 0.5 0.9-1c1.6-1.7 2.5-3.2 3-4.8 0.4-1.3 0.3-2.8-0.1-3.6q-0.8-1.5-2.4-2c-2.1-0.7-4.2 0.1-5.2 2zm4.5 1q0.7 0.7 0 1.3c-0.5 0.5-1 0.5-1.4 0.1-0.6-0.5-0.4-1.2 0.2-1.6q0.6-0.3 1.2 0.2zm0 13c0.3 0.4 0.3 0.4 0.3 1.7 0 1.3 0 1.3-0.3 1.6-0.5 0.5-1 0.5-1.4 0.1-0.3-0.3-0.4-0.4-0.4-1.7 0-1.4 0.1-1.4 0.4-1.7 0.4-0.4 0.9-0.4 1.4 0zm0 6c0.3 0.4 0.3 0.4 0.3 1.8 0 1.3 0 1.4-0.3 1.6-0.4 0.4-1 0.3-1.4 0-0.3-0.3-0.3-0.5-0.3-1.7-0.1-1.4 0-1.6 0.5-1.9q0.6-0.3 1.2 0.2zm0.5 5.8c0.2 0.2 0.4 0.3 0.5 0.9 0.1 0.4 0.3 0.9 0.5 1.3 0.3 0.8 0.3 1-0.1 1.4-0.4 0.4-1.1 0.4-1.5 0-0.3-0.3-1-2.4-1-2.8 0-0.1 0.1-0.4 0.3-0.6 0.4-0.4 0.7-0.4 1.3-0.2zm2.3 4.9c0.4 0 1.8 0.8 2.4 1.3 0.6 0.6 0.4 1.4-0.5 1.7-0.3 0.1-1.2-0.3-2.1-0.9q-1.3-0.9-0.4-1.8c0.2-0.2 0.5-0.3 0.6-0.3z" />
</svg>
