<svg version="1.2" xmlns="http://www.w3.org/2000/svg" viewBox="0 0 86 60" width="86" height="60">
    <path fill="#334155" fill-rule="evenodd" d="m14.7 18.6v24.8c0 0.7-0.1 1 0.1 1.3 0.1 0.3 0.4 0.4 0.6 0.4q0.4 0 0.6-0.4c0.3-0.3 0.2-0.7 0.2-1.4v-24.7h1.3v25.3c0 1.7-0.7 2.6-2.1 2.6q-0.9 0-1.5-0.6-0.6-0.7-0.6-2v-25.3zm13 27.7l-1.9-17v17h-1.1v-27.7h1.4l2 16v-16h0.9v27.7zm12-15.2v0.9h-2v13.1h2.2v1.2h-3.9v-27.7h3.7v1.2h-2v11.3zm38.3-16.4v2.3h-68.8v-2.3zm0 33.7v2.3h-68.9v-2.3zm3.8 4.6v2.3h-77.1v-2.3zm3.9 4.5v2.4h-84.8v-2.4zm-42.4-57.4l34.6 9.3v2.5l-35-9-33.9 9.2v-2.5zm26.8 11.9h-7.2l-19.3-4.9-19.3 4.8-7.4 0.1 26.8-7.2zm-20.5 8.4c0 0 0-0.8-0.6-0.8-0.7 0-0.7 0.8-0.7 0.8 0 0 0 1 0 2.7 0 1.7 0.1 3.5 0.4 4.8 0.3 1.2 1.6 5.5 2 6.8 0.4 1.4 0.5 3.4 0.5 3.4v6c0 0 0 2.1-2.4 2.1-2.4 0-2-2.4-2-2.4v-6.5h1.5v6.6c0 0-0.1 1.1 0.7 1.1 0.7 0 0.6-1.1 0.6-1.1 0 0 0-1.5 0-2.5 0.1-1.1 0-3.2 0-3.9-0.1-0.6-0.4-1.6-0.9-3.8-0.7-2.1-1.8-6.5-1.9-7.6-0.1-1.1-0.2-4.5-0.2-5.2 0-0.8 0.2-1.5 0.6-1.9 0.4-0.4 0.6-0.7 1.6-0.7 1 0 1.5 0.4 1.9 0.8 0.4 0.4 0.4 2 0.4 2v5.4h-1.5zm11.5-0.3c0-0.3 0-0.8-0.7-0.8-0.9 0-0.8 0.6-0.8 0.9v24.1c0 0.3-0.1 0.9 0.8 0.9 0.7 0 0.7-0.4 0.7-0.8v-7.2h1.3v7.2c0 1-0.6 2-2 2-1.4 0-2.2-0.9-2.2-2v-24.3c0-1.1 0.8-2 2.2-2 1.4 0 2 1 2 2v6.4h-1.3zm13.1 0v24.4c0 1-0.8 1.9-2.2 1.9-1.4 0-2.3-0.9-2.3-2v-24.3c0-1.1 0.9-2 2.3-2 1.4 0 2.2 1 2.2 2zm-1.3 0c0-0.3-0.1-0.8-0.9-0.8-0.8 0-0.9 0.7-0.9 0.9v24.1c0 0.3 0.1 1 0.9 1 0.8 0 0.9-0.5 0.9-0.9z" />
</svg>
