<svg width="86" height="60" viewBox="0 0 86 60" fill="none" xmlns="http://www.w3.org/2000/svg">
<g clip-path="url(#clip0_22_103)">
<path fill-rule="evenodd" clip-rule="evenodd" d="M14.6588 18.5889V43.3913C14.6588 44.0633 14.5801 44.3993 14.8165 44.7353C14.9347 44.9599 15.171 45.0713 15.3682 45.0713C15.6439 45.0713 15.8807 44.9599 16.038 44.6987C16.2746 44.3623 16.2353 44.0256 16.2353 43.3166V18.5889H17.4571V43.8764C17.4571 45.5942 16.7871 46.4534 15.3682 46.4534C14.7768 46.4534 14.2646 46.2673 13.8704 45.8566C13.4762 45.445 13.2791 44.8101 13.2791 43.9142V18.5889H14.6588Z" fill="#334155"/>
<path fill-rule="evenodd" clip-rule="evenodd" d="M27.7049 46.3043L25.7342 29.2717V46.3043H24.6699V18.5889H26.0888L28.0988 34.5758V18.5889H29.0057V46.3043H27.7049Z" fill="#334155"/>
<path fill-rule="evenodd" clip-rule="evenodd" d="M39.6478 31.0645V32.0358H37.7166V45.1468H39.9237V46.3043H35.9821V18.5889H39.6478V19.7843H37.7166V31.0645H39.6478Z" fill="#334155"/>
<path fill-rule="evenodd" clip-rule="evenodd" d="M77.9197 14.6669V16.9833H9.06189V14.6669H77.9197Z" fill="#334155"/>
<path fill-rule="evenodd" clip-rule="evenodd" d="M77.9197 48.3591V50.6745H9.06189V48.3591H77.9197Z" fill="#334155"/>
<path fill-rule="evenodd" clip-rule="evenodd" d="M81.7033 53.0276V55.3441H4.64746V53.0276H81.7033Z" fill="#334155"/>
<path fill-rule="evenodd" clip-rule="evenodd" d="M85.5659 57.5472V59.9003H0.745483V57.5472H85.5659Z" fill="#334155"/>
<path fill-rule="evenodd" clip-rule="evenodd" d="M43.1554 0.0996094L77.761 9.43801V11.9031L42.8401 2.90121L8.90417 12.0522V9.58722L43.1554 0.0996094Z" fill="#334155"/>
<path fill-rule="evenodd" clip-rule="evenodd" d="M69.9184 12.0522H62.7836L43.4314 7.08459L24.1187 11.9031L16.7476 12.0522L43.5099 4.76868L69.9184 12.0522Z" fill="#334155"/>
<path fill-rule="evenodd" clip-rule="evenodd" d="M49.4619 26.5824H50.9598V21.2035C50.9598 21.2035 50.9199 19.6347 50.5255 19.1869C50.132 18.7757 49.6591 18.402 48.6341 18.402C47.6489 18.4397 47.4119 18.7012 47.0574 19.1118C46.663 19.5229 46.5056 20.2322 46.5056 20.9798C46.5056 21.7264 46.5455 25.051 46.663 26.1713C46.7813 27.255 47.8852 31.6621 48.5158 33.7917C49.1074 35.9579 49.383 37.0414 49.4229 37.639C49.4619 38.2732 49.5404 40.4029 49.4619 41.4486C49.4229 42.4943 49.4619 43.9508 49.4619 43.9508C49.4619 43.9508 49.5404 45.109 48.8313 45.109C48.0824 45.109 48.1608 43.9508 48.1608 43.9508V37.3774H46.663V43.9142C46.663 43.9142 46.2694 46.3043 48.6341 46.3043C51.0386 46.3043 51.0386 44.1754 51.0386 44.1754V38.1989C51.0386 38.1989 50.9199 36.2192 50.5255 34.8374C50.132 33.4923 48.8703 29.1971 48.5942 28.0015C48.2796 26.7321 48.1608 24.8639 48.1608 23.1834C48.1608 21.5028 48.2007 20.4568 48.2007 20.4568C48.2007 20.4568 48.1608 19.6725 48.8313 19.6725C49.4619 19.6725 49.4229 20.4941 49.4229 20.4941L49.4619 26.5824Z" fill="#334155"/>
<path fill-rule="evenodd" clip-rule="evenodd" d="M60.9313 26.657H62.2319V20.1949C62.2319 19.1869 61.6412 18.1782 60.1819 18.1782C58.8426 18.1782 58.0547 19.1118 58.0547 20.2322V44.5118C58.0547 45.5942 58.8426 46.5289 60.1819 46.5289C61.6412 46.5289 62.2319 45.5576 62.2319 44.5484V37.2653H60.9313V44.5118C60.9313 44.8856 60.9711 45.3329 60.1819 45.3329C59.3545 45.3329 59.4342 44.661 59.4342 44.3993V20.3073C59.4342 20.0458 59.3545 19.3733 60.1819 19.3733C60.9711 19.3733 60.9313 19.8589 60.9313 20.2322V26.657Z" fill="#334155"/>
<path fill-rule="evenodd" clip-rule="evenodd" d="M71.8099 18.1782C70.4702 18.1782 69.524 19.1118 69.524 20.2322V44.5118C69.524 45.5942 70.4702 46.5289 71.8099 46.5289C73.2679 46.5289 74.0172 45.5576 74.0172 44.5484V20.1949C74.0172 19.1869 73.2679 18.1782 71.8099 18.1782ZM72.7161 44.5118C72.7161 44.8856 72.5987 45.3329 71.8099 45.3329C70.9821 45.3329 70.9036 44.6609 70.9036 44.3993V20.3073C70.9036 20.0458 70.9821 19.3733 71.8099 19.3733C72.5987 19.3733 72.7161 19.8589 72.7161 20.2322V44.5118Z" fill="#334155"/>
</g>
<defs>
<clipPath id="clip0_22_103">
<rect width="84.9781" height="60" fill="white" transform="translate(0.666626)"/>
</clipPath>
</defs>
</svg>
